<svg width="32" height="32" viewBox="0 0 32 32" fill="none" xmlns="http://www.w3.org/2000/svg">
<rect width="32" height="32" rx="6" fill="#F7F7FC"/>
<path d="M23.8886 17.7303C23.5108 17.9672 23.07 18.0102 22.7342 17.8164C22.3144 17.558 22.0625 16.9766 22.0625 16.1799V13.7467C22.0625 12.5839 21.6217 11.7441 20.866 11.5287C19.5856 11.1411 18.6201 12.7561 18.2633 13.3591L15.9963 17.0843V12.4977C15.9753 11.4426 15.6395 10.8182 15.0098 10.6244C14.59 10.4952 13.9602 10.5598 13.3515 11.5072L8.29288 19.819C7.62119 18.5055 7.26436 17.0412 7.26436 15.5554C7.26436 10.5382 11.1895 6.46845 15.9963 6.46845C20.8031 6.46845 24.7283 10.5382 24.7283 15.5554V15.577V15.5985C24.7702 16.5675 24.4764 17.3427 23.8886 17.7303ZM26.6594 15.5554V15.5339V15.5124C26.6384 9.41849 21.8526 4.44434 15.9963 4.44434C10.119 4.44434 5.33325 9.4185 5.33325 15.5554C5.33325 21.6709 10.119 26.6666 15.9963 26.6666C18.704 26.6666 21.2649 25.6114 23.2379 23.695C23.6368 23.3074 23.6577 22.6829 23.2799 22.2738C22.9231 21.8647 22.3144 21.8431 21.9156 22.2092C21.9156 22.2092 21.9156 22.2092 21.8946 22.2307C20.2993 23.7811 18.1583 24.664 15.9543 24.664C13.3725 24.664 11.0636 23.5012 9.46833 21.6493L14.0232 14.1558V17.6226C14.0232 19.2807 14.6529 19.819 15.1777 19.9697C15.7024 20.1205 16.5001 20.0128 17.3607 18.6132L19.8585 14.4573C19.9425 14.3281 20.0054 14.1989 20.0894 14.1127V16.223C20.0894 17.7734 20.6981 19.0223 21.7476 19.6252C22.6922 20.1851 23.8886 20.1205 24.8752 19.496C26.0926 18.6778 26.7433 17.2566 26.6594 15.5554Z" fill="#2B6AFF"/>
</svg>
