<svg width="32" height="32" viewBox="0 0 32 32" fill="none" xmlns="http://www.w3.org/2000/svg">
<rect width="32" height="32" rx="6" fill="#F7F7FC"/>
<g clip-path="url(#clip0_383_1744)">
<path d="M7 6.17712C7 5.29684 7.27155 5 8.09591 5C13.3621 5 18.6282 5 23.8847 5C24.7091 5 25 5.29684 25 6.16689C25 13.0556 25 19.9341 25 26.8229C25 27.7032 24.7187 28 23.9041 28C18.6379 28 13.3718 28 8.1056 28C7.28125 28 7 27.7032 7 26.8331C7 23.3939 7 19.9444 7 16.5051C7 13.0659 7 9.61638 7 6.17712ZM7.67888 16.5051C7.67888 19.9137 7.68858 23.3222 7.66918 26.7308C7.66918 27.1402 7.75647 27.2937 8.17349 27.2835C13.3912 27.2733 18.6088 27.2733 23.8265 27.2835C24.2047 27.2835 24.3211 27.1709 24.3211 26.7615C24.3114 19.9034 24.3114 13.0556 24.3211 6.1976C24.3211 5.76769 24.1756 5.69604 23.8071 5.69604C18.5894 5.70628 13.3718 5.70628 8.1541 5.69604C7.76616 5.69604 7.65948 5.7984 7.65948 6.20783C7.68858 9.64708 7.67888 13.0761 7.67888 16.5051ZM16.0291 17.1909C17.8912 17.1909 19.7435 17.1909 21.6056 17.1909C21.8675 17.1909 22.1875 17.2216 22.1778 16.8327C22.1681 16.4642 21.8578 16.4744 21.5959 16.4744C17.8621 16.4744 14.1379 16.4744 10.4041 16.4744C10.1713 16.4744 9.89978 16.4539 9.84159 16.7508C9.76401 17.1807 10.0744 17.1909 10.3653 17.1909C12.2468 17.1909 14.1379 17.1909 16.0291 17.1909ZM15.9612 21.9506C14.1379 21.9506 12.3147 21.9506 10.4817 21.9506C10.3556 21.9506 10.2198 21.9506 10.0938 21.9608C9.92888 21.9813 9.8319 22.0939 9.8125 22.2577C9.7931 22.4522 9.89979 22.5852 10.0647 22.6364C10.1907 22.6671 10.3168 22.6671 10.4526 22.6671C14.1476 22.6671 17.8524 22.6671 21.5474 22.6671C21.6638 22.6671 21.7802 22.6773 21.8869 22.6569C22.0614 22.6159 22.1778 22.4931 22.1681 22.2986C22.1584 22.1144 22.0614 21.9813 21.8675 21.9608C21.7414 21.9506 21.6056 21.9506 21.4795 21.9506C19.6466 21.9506 17.8039 21.9506 15.9612 21.9506ZM16.0097 25.3899C17.833 25.3899 19.6562 25.3899 21.4892 25.3899C21.6153 25.3899 21.7511 25.3899 21.8772 25.3796C22.0711 25.3591 22.1778 25.2363 22.1778 25.0418C22.1875 24.8474 22.0711 24.7143 21.8966 24.6836C21.7511 24.6529 21.6056 24.6631 21.4601 24.6631C17.8233 24.6631 14.1961 24.6631 10.5593 24.6631C10.5108 24.6631 10.4623 24.6631 10.4138 24.6631C10.1519 24.6631 9.8416 24.6426 9.8319 25.0214C9.8222 25.4206 10.1422 25.3899 10.3944 25.3899C11.5776 25.3899 12.7511 25.3899 13.9343 25.3899C14.6228 25.3899 15.3114 25.3899 16.0097 25.3899ZM15.9612 19.9341C17.8039 19.9341 19.6466 19.9341 21.4892 19.9341C21.6153 19.9341 21.7511 19.9444 21.8772 19.9239C22.0711 19.9034 22.1681 19.7601 22.1778 19.5861C22.1875 19.4019 22.0808 19.2586 21.8966 19.2279C21.7899 19.2074 21.6735 19.2176 21.5571 19.2176C17.8621 19.2176 14.1573 19.2176 10.4623 19.2176C10.3944 19.2176 10.3362 19.2176 10.2683 19.2176C10.0259 19.2074 9.8319 19.2995 9.8222 19.5656C9.8125 19.842 10.0065 19.9444 10.2489 19.9341C10.3944 19.9341 10.5399 19.9341 10.6853 19.9341C12.4407 19.9341 14.2058 19.9341 15.9612 19.9341ZM16.0097 7.86604C17.6778 7.86604 19.0259 9.28883 19.0259 11.0494C19.0356 12.8304 17.6681 14.2839 15.9903 14.2737C14.3222 14.2635 12.9838 12.8509 12.9741 11.0801C12.9644 9.29907 14.3222 7.85581 16.0097 7.86604ZM15.9806 13.5572C17.2802 13.5674 18.347 12.4415 18.3373 11.0596C18.3373 9.69826 17.2899 8.59279 16.0097 8.58255C14.7004 8.57232 13.6433 9.68803 13.653 11.0801C13.6627 12.4415 14.7004 13.547 15.9806 13.5572ZM16.3297 11.8376C16.3297 11.5817 16.3394 11.3258 16.3297 11.0699C16.32 10.8549 16.2231 10.7219 16 10.7116C15.806 10.7116 15.68 10.8344 15.6703 11.0085C15.6509 11.551 15.6509 12.0935 15.6703 12.636C15.68 12.8202 15.8351 12.9328 16.0194 12.9226C16.194 12.9123 16.32 12.7997 16.3297 12.595C16.3297 12.3494 16.32 12.0935 16.3297 11.8376C16.32 11.8376 16.3297 11.8376 16.3297 11.8376ZM16 10.2817C16.1746 10.251 16.32 10.1589 16.3297 9.93369C16.3394 9.7085 16.2231 9.58567 16.0097 9.57543C15.7963 9.5652 15.6703 9.69826 15.6606 9.91322C15.6509 10.1179 15.7866 10.2408 16 10.2817Z" fill="url(#paint0_linear_383_1744)"/>
<path d="M16.3297 11.8376C16.3297 11.5817 16.3394 11.3258 16.3297 11.0699C16.32 10.8549 16.2231 10.7219 16 10.7116C15.806 10.7116 15.68 10.8344 15.6703 11.0085C15.6509 11.551 15.6509 12.0935 15.6703 12.636C15.68 12.8202 15.8351 12.9328 16.0194 12.9226C16.194 12.9123 16.32 12.7997 16.3297 12.595C16.3297 12.3494 16.32 12.0935 16.3297 11.8376ZM16.3297 11.8376C16.32 11.8376 16.3297 11.8376 16.3297 11.8376ZM7 6.17712C7 5.29684 7.27155 5 8.09591 5C13.3621 5 18.6282 5 23.8847 5C24.7091 5 25 5.29684 25 6.16689C25 13.0556 25 19.9341 25 26.8229C25 27.7032 24.7187 28 23.9041 28C18.6379 28 13.3718 28 8.1056 28C7.28125 28 7 27.7032 7 26.8331C7 23.3939 7 19.9444 7 16.5051C7 13.0659 7 9.61638 7 6.17712ZM7.67888 16.5051C7.67888 19.9137 7.68858 23.3222 7.66918 26.7308C7.66918 27.1402 7.75647 27.2937 8.17349 27.2835C13.3912 27.2733 18.6088 27.2733 23.8265 27.2835C24.2047 27.2835 24.3211 27.1709 24.3211 26.7615C24.3114 19.9034 24.3114 13.0556 24.3211 6.1976C24.3211 5.76769 24.1756 5.69604 23.8071 5.69604C18.5894 5.70628 13.3718 5.70628 8.1541 5.69604C7.76617 5.69604 7.65948 5.7984 7.65948 6.20783C7.68858 9.64708 7.67888 13.0761 7.67888 16.5051ZM16.0291 17.1909C17.8912 17.1909 19.7435 17.1909 21.6056 17.1909C21.8675 17.1909 22.1875 17.2216 22.1778 16.8327C22.1681 16.4642 21.8578 16.4744 21.5959 16.4744C17.8621 16.4744 14.1379 16.4744 10.4041 16.4744C10.1713 16.4744 9.89978 16.4539 9.84159 16.7508C9.76401 17.1807 10.0744 17.1909 10.3653 17.1909C12.2468 17.1909 14.1379 17.1909 16.0291 17.1909ZM15.9612 21.9506C14.1379 21.9506 12.3147 21.9506 10.4817 21.9506C10.3556 21.9506 10.2198 21.9506 10.0938 21.9608C9.92888 21.9813 9.8319 22.0939 9.8125 22.2577C9.7931 22.4522 9.89978 22.5852 10.0647 22.6364C10.1907 22.6671 10.3168 22.6671 10.4526 22.6671C14.1476 22.6671 17.8524 22.6671 21.5474 22.6671C21.6638 22.6671 21.7802 22.6773 21.8869 22.6569C22.0614 22.6159 22.1778 22.4931 22.1681 22.2986C22.1584 22.1144 22.0614 21.9813 21.8675 21.9608C21.7414 21.9506 21.6056 21.9506 21.4795 21.9506C19.6466 21.9506 17.8039 21.9506 15.9612 21.9506ZM16.0097 25.3899C17.833 25.3899 19.6563 25.3899 21.4892 25.3899C21.6153 25.3899 21.7511 25.3899 21.8772 25.3796C22.0711 25.3591 22.1778 25.2363 22.1778 25.0418C22.1875 24.8474 22.0711 24.7143 21.8966 24.6836C21.7511 24.6529 21.6056 24.6631 21.4601 24.6631C17.8233 24.6631 14.1961 24.6631 10.5593 24.6631C10.5108 24.6631 10.4623 24.6631 10.4138 24.6631C10.1519 24.6631 9.8416 24.6426 9.8319 25.0214C9.8222 25.4206 10.1422 25.3899 10.3944 25.3899C11.5776 25.3899 12.7511 25.3899 13.9343 25.3899C14.6228 25.3899 15.3114 25.3899 16.0097 25.3899ZM15.9612 19.9341C17.8039 19.9341 19.6466 19.9341 21.4892 19.9341C21.6153 19.9341 21.7511 19.9444 21.8772 19.9239C22.0711 19.9034 22.1681 19.7601 22.1778 19.5861C22.1875 19.4019 22.0808 19.2586 21.8966 19.2279C21.7899 19.2074 21.6735 19.2176 21.5571 19.2176C17.8621 19.2176 14.1573 19.2176 10.4623 19.2176C10.3944 19.2176 10.3362 19.2176 10.2683 19.2176C10.0259 19.2074 9.8319 19.2995 9.8222 19.5656C9.8125 19.842 10.0065 19.9444 10.2489 19.9341C10.3944 19.9341 10.5399 19.9341 10.6853 19.9341C12.4407 19.9341 14.2058 19.9341 15.9612 19.9341ZM16.0097 7.86604C17.6778 7.86604 19.0259 9.28883 19.0259 11.0494C19.0356 12.8304 17.6681 14.2839 15.9903 14.2737C14.3222 14.2635 12.9838 12.8509 12.9741 11.0801C12.9644 9.29907 14.3222 7.85581 16.0097 7.86604ZM15.9806 13.5572C17.2802 13.5674 18.347 12.4415 18.3373 11.0596C18.3373 9.69826 17.2899 8.59279 16.0097 8.58255C14.7004 8.57232 13.6433 9.68803 13.653 11.0801C13.6627 12.4415 14.7004 13.547 15.9806 13.5572ZM16 10.2817C16.1746 10.251 16.32 10.1589 16.3297 9.93369C16.3394 9.7085 16.2231 9.58567 16.0097 9.57543C15.7963 9.5652 15.6703 9.69826 15.6606 9.91322C15.6509 10.1179 15.7866 10.2408 16 10.2817Z" stroke="url(#paint1_linear_383_1744)" stroke-width="0.2"/>
</g>
<defs>
<linearGradient id="paint0_linear_383_1744" x1="16" y1="5" x2="16" y2="28" gradientUnits="userSpaceOnUse">
<stop stop-color="#766FDF"/>
<stop offset="1" stop-color="#5550D8"/>
</linearGradient>
<linearGradient id="paint1_linear_383_1744" x1="16" y1="5" x2="16" y2="28" gradientUnits="userSpaceOnUse">
<stop stop-color="#766FDF"/>
<stop offset="1" stop-color="#554FD8"/>
</linearGradient>
<clipPath id="clip0_383_1744">
<rect width="18" height="23" fill="white" transform="matrix(-1 0 0 1 25 5)"/>
</clipPath>
</defs>
</svg>
