<svg width="1400" height="260" viewBox="0 0 1400 260" fill="none" xmlns="http://www.w3.org/2000/svg">
<path d="M-70.2566 188.61C39.6124 179.417 117.153 150.175 167.969 124.86C219.355 99.2587 256.364 71.1749 323.99 56.0761C398.578 39.2997 447.314 46.8155 466.59 51.0432C493.315 56.9149 491.654 60.9077 535.373 74.5302C619.356 100.702 635.31 89.0586 672.94 106.406C735.332 135.16 716.726 178.796 781.987 227.196C829.246 262.259 907.492 290.158 978.271 270.815C1044.92 252.596 1052.42 206.846 1122.55 200.354C1151.35 197.686 1175.31 203.608 1223.21 215.453C1284.59 230.551 1325.81 249.173 1342.32 255.716C1391.22 275.126 1470.16 287.34 1599 249.005" stroke="#181645" stroke-miterlimit="10"/>
<path d="M-70.9949 203.407C35.2839 195.472 114.737 168.999 170.167 142.76C215.195 121.152 249.536 97.4638 296.862 80.5363C307.213 76.8455 318.118 73.2721 329.862 70.1852C403.862 50.7581 452.413 53.9624 472.679 55.9252C499.857 58.5424 499.857 61.5286 542.704 74.7652C572.902 84.0762 594.409 89.3943 611.068 92.8838C639.387 98.8059 653.563 99.2085 675.909 110.6C684.247 114.815 692.072 119.977 699.229 125.984C732.329 153.749 730.919 188.946 785.829 226.257C833.625 258.736 911.35 283.297 980.922 264.088C986.434 262.562 991.865 260.759 997.195 258.686C1050.98 237.732 1063.06 200.874 1124.7 195.086C1131.19 194.467 1137.72 194.282 1144.24 194.532C1166.15 195.304 1188.8 200.773 1224.67 209.631C1284.09 224.394 1324.67 242.664 1342.87 249.895C1356.21 255.142 1369.96 259.261 1383.98 262.209C1432.49 272.543 1501.08 273.617 1597.56 247.244" stroke="#181645" stroke-miterlimit="10"/>
<path d="M-71.7329 219.512C30.9389 212.802 112.389 189.315 172.364 161.835C219.993 140.025 255.928 115.112 302.382 97.3294C312.985 93.2527 323.973 89.1257 335.767 85.5859C409.181 63.4913 457.48 60.8238 478.82 62.0988C506.316 63.7765 508.145 63.4577 550.053 76.2917C579.395 85.3007 600.818 91.3905 617.158 95.6685C644.689 102.832 657.925 104.275 678.829 116.102C686.794 120.657 694.28 126.002 701.175 132.057C733.151 159.637 734.728 192.72 789.704 226.676C838.037 256.555 915.242 277.777 983.606 258.702C989.394 257.025 994.746 255.347 999.762 253.334C1055.24 231.994 1067.52 196.847 1126.89 191.261C1133.34 190.626 1139.82 190.419 1146.29 190.64C1168.57 191.294 1191.18 196.613 1226.18 205.387C1283.65 219.747 1323.56 237.715 1343.48 245.466C1356.7 250.665 1370.32 254.794 1384.21 257.813C1432.29 268.382 1500.56 270.613 1596.08 246.858" stroke="#181645" stroke-miterlimit="10"/>
<path d="M-72.4543 236.709C26.6106 231.29 110.006 210.571 174.579 182.085C224.74 159.94 262.32 133.886 307.868 115.23C318.739 110.768 329.828 106.104 341.639 102.094C414.465 77.3658 462.429 72.1819 484.926 69.3635C512.759 65.8907 516.399 66.4779 557.384 78.9093C585.904 87.5827 607.243 94.4611 623.349 99.5276C650.074 107.916 662.404 110.432 681.865 122.679C689.396 127.581 696.501 133.109 703.104 139.204C733.956 166.583 738.62 197.536 793.529 228.119C842.466 255.398 919.084 273.298 986.24 254.341C991.978 252.663 997.296 250.985 1002.28 249.023C1059.42 227.213 1071.95 193.845 1129.02 188.292C1135.42 187.642 1141.86 187.412 1148.28 187.604C1170.93 188.124 1193.58 193.325 1227.65 201.931C1283.15 215.872 1322.42 233.521 1344.03 241.926C1357.18 247.047 1370.69 251.18 1384.45 254.29C1432.09 265.094 1500.04 268.5 1594.59 247.345" stroke="#181645" stroke-miterlimit="10"/>
<path d="M-73.1926 253.938C22.2821 249.777 107.59 231.86 176.776 202.35C229.488 179.853 268.695 152.642 313.37 133.147C324.493 128.299 335.666 123.081 347.527 118.619C419.767 91.3068 467.294 82.0126 491.05 76.6777C519.117 70.3698 524.603 69.5477 564.732 81.5764C592.497 89.9647 613.652 97.5812 629.489 103.386C655.408 112.982 666.816 116.606 684.851 129.255C691.935 134.492 698.661 140.198 704.983 146.334C734.727 173.478 742.478 202.317 797.337 229.629C846.878 254.29 922.892 268.886 988.857 250.062C994.528 248.385 999.812 246.707 1004.78 244.778C1063.6 222.516 1076.35 191.093 1131.14 185.473C1137.49 184.832 1143.88 184.58 1150.26 184.718C1173.25 185.121 1195.83 190.187 1229.11 198.626C1282.66 212.181 1321.28 229.528 1344.58 238.537C1357.64 243.608 1371.03 247.751 1384.66 250.935C1431.89 261.991 1499.52 266.537 1593.11 248.016" stroke="#181645" stroke-miterlimit="10"/>
<path d="M-73.897 265.044C17.9876 262.142 105.225 247.043 179.008 216.51C234.253 193.643 275.103 165.224 318.907 144.958C330.264 139.707 341.555 134.003 353.449 129.037C425.068 99.1414 472.21 85.8209 497.157 77.8521C525.475 68.8263 532.907 66.4609 572.063 78.1037C593.687 84.5567 614.912 92.276 635.629 101.222C660.794 112.009 671.246 116.773 687.804 129.742C695.035 135.429 700.772 141.485 706.979 147.374C735.617 174.216 746.471 201.058 801.23 225.015C851.425 247.043 926.801 258.35 991.558 239.661C997.178 237.983 1002.43 236.306 1007.36 234.41C1067.87 211.745 1080.84 181.984 1133.35 176.531C1139.66 175.888 1145.99 175.619 1152.33 175.726C1175.68 176.045 1198.23 180.927 1230.61 189.147C1282.19 202.266 1320.18 219.345 1345.16 228.958C1358.12 233.974 1371.41 238.122 1384.93 241.372C1431.72 252.68 1499.01 258.4 1591.65 242.48" stroke="#181645" stroke-miterlimit="10"/>
<path d="M-74.6689 272.962C13.6087 271.285 102.776 258.987 181.172 227.465C238.95 204.229 281.411 174.568 324.376 153.648C335.985 147.978 347.359 141.77 359.304 136.335C430.386 103.906 477.159 86.5758 503.28 75.9395C531.8 64.2798 541.161 60.287 579.411 71.5273C600.844 77.8264 621.7 85.942 641.752 95.786C666.095 107.731 675.658 113.67 690.773 127.091C697.484 133.013 702.768 139.321 708.925 145.277C736.472 171.951 750.447 196.478 805.071 217.264C855.954 236.624 930.676 244.677 994.226 226.106C999.779 224.428 1004.98 222.75 1009.91 220.888C1072.12 197.871 1085.36 169.821 1135.52 164.57C1141.77 163.909 1148.07 163.618 1154.36 163.697C1178.05 163.898 1200.59 168.629 1232.08 176.749C1281.71 189.483 1319.03 206.242 1345.73 216.493C1358.6 221.446 1371.78 225.597 1385.17 228.924C1431.54 240.483 1498.51 247.378 1590.19 234.041" stroke="#181645" stroke-miterlimit="10"/>
<path d="M-75.3901 280.998C9.28059 280.613 100.343 271.05 183.387 238.537C243.681 214.916 287.736 183.98 329.862 162.305C341.723 156.182 353.215 149.471 365.193 143.599C435.704 108.671 482.142 87.398 509.386 73.9769C538.292 59.7504 549.415 54.08 586.743 64.9176C608.02 71.1507 628.531 79.7492 647.893 90.552C671.38 103.621 680.07 110.801 693.76 124.558C699.9 130.732 704.765 137.241 710.855 143.314C737.328 169.703 754.474 192.05 808.93 209.631C860.517 226.29 934.535 231.105 996.826 212.685C1002.33 211.007 1007.5 209.329 1012.39 207.484C1076.3 183.997 1089.68 157.708 1137.63 152.491C1143.84 151.83 1150.08 151.516 1156.32 151.551C1180.38 151.551 1202.89 156.215 1233.49 164.201C1281.17 176.498 1317.83 192.989 1346.23 203.827C1359.02 208.738 1372.08 212.905 1385.35 216.308C1431.29 228.052 1497.94 236.121 1588.65 225.435" stroke="#181645" stroke-miterlimit="10"/>
<path d="M-76.1284 289.068C4.95215 289.94 97.9272 283.146 185.584 249.643C248.412 225.636 294.061 193.408 335.364 171.079C347.443 164.553 359.069 157.389 371.065 150.947C441.022 113.519 487.157 88.3037 515.51 72.0977C544.768 55.3212 557.669 47.9396 594.091 58.3745C615.206 64.5357 635.375 73.5675 654.033 85.2169C676.798 99.4265 684.465 107.848 696.729 121.941C702.315 128.383 706.795 135.06 712.801 141.25C738.2 167.371 758.483 187.486 812.772 201.914C865.097 215.822 938.394 217.466 999.527 199.163C1004.98 197.485 1010.11 195.807 1014.98 194.012C1080.59 170.173 1094.16 145.562 1139.85 140.445C1146.01 139.783 1152.2 139.447 1158.4 139.438C1182.81 139.287 1205.37 143.851 1235.05 151.668C1280.75 163.563 1316.77 179.769 1346.87 191.211C1359.56 196.088 1372.51 200.282 1385.65 203.776C1431.17 215.822 1497.5 224.998 1587.26 216.929" stroke="#181645" stroke-miterlimit="10"/>
<path d="M-76.8665 297.104C0.623947 299.184 95.5451 295.141 187.816 260.666C253.244 236.256 300.385 202.72 340.901 179.77C353.215 172.791 364.958 165.174 376.987 158.262C446.374 118.384 492.224 89.2437 521.667 70.1689C551.344 50.9263 565.973 41.7663 601.472 51.7987C622.441 57.9385 642.272 67.4461 660.19 79.9496C682.167 95.2497 688.878 104.98 699.715 119.391C704.748 126.102 708.791 132.93 714.814 139.254C739.173 165.09 762.627 182.873 816.714 194.248C869.778 205.37 942.336 203.877 1002.28 185.708C1007.66 184.031 1012.76 182.353 1017.61 180.675C1084.92 156.467 1098.69 133.534 1142.08 128.551C1148.2 127.854 1154.36 127.495 1160.53 127.477C1185.29 127.31 1207.77 131.621 1236.65 139.221C1280.38 150.713 1315.75 166.634 1347.55 178.679C1359.05 183.041 1371.78 187.352 1386.02 191.211C1431.1 203.491 1497.12 213.843 1585.9 208.373" stroke="#181645" stroke-miterlimit="10"/>
<path d="M-77.6047 304.905C-3.78837 308.26 93.0621 306.985 189.98 271.553C257.857 246.741 306.626 211.863 346.37 188.308C358.902 180.876 370.779 172.824 382.842 165.409C451.726 123.081 497.324 90.0319 527.74 68.105C557.837 46.2956 574.177 35.458 608.77 45.0877C629.616 51.2118 649.132 61.1806 666.313 74.4801C687.535 90.8875 693.156 101.943 702.668 116.639C707.147 123.618 710.788 130.614 716.676 137.056C739.995 162.573 766.603 178.125 820.472 186.379C874.341 194.633 946.111 190.07 1004.85 172.035C1010.18 170.358 1015.25 168.68 1020.06 167.002C1089.08 142.425 1103.05 121.169 1144.21 116.304C1150.27 115.595 1156.37 115.22 1162.48 115.18C1187.64 114.861 1210.05 119.055 1237.97 126.554C1279.76 137.627 1314.45 153.279 1347.97 165.912C1359.42 170.24 1372.05 174.535 1386.12 178.477C1430.77 190.993 1496.46 202.501 1584.29 199.666" stroke="#181645" stroke-miterlimit="10"/>
<path d="M-78.3259 312.605C-8.0494 317.252 90.6297 318.678 192.194 282.307C262.655 257.142 312.884 220.838 351.856 196.747C364.623 188.845 376.635 180.373 388.764 172.455C457.111 127.661 502.475 90.7532 533.847 65.8737C564.43 41.682 582.498 28.9655 616.051 38.2093C638.33 44.3495 658.563 57.0493 672.403 68.8431C692.887 86.3242 697.568 98.7388 705.604 113.72C709.496 120.968 712.751 128.131 718.555 134.707C740.851 159.872 770.562 173.109 824.247 178.326C878.821 183.678 949.902 176.095 1007.43 158.195C1012.7 156.517 1017.73 154.839 1022.53 153.162C1093.24 128.198 1107.4 108.62 1146.24 103.889C1152.26 103.17 1158.31 102.772 1164.37 102.698C1189.86 102.211 1212.27 106.305 1239.4 113.653C1279.22 124.323 1313.21 139.69 1348.44 152.927C1359.83 157.205 1372.37 161.516 1386.26 165.509C1430.48 178.276 1495.86 190.942 1582.71 190.674" stroke="#181645" stroke-miterlimit="10"/>
<path d="M-79.0642 320.205C-12.3778 326.127 88.1299 330.07 194.392 292.943C267.252 267.175 319.125 229.696 357.358 205.018C370.326 196.63 382.523 187.755 394.619 179.333C462.496 132.174 507.642 91.2735 539.97 63.5755C571.057 36.9345 590.668 22.4396 623.45 31.2641C644.94 37.1023 665.072 50.4731 678.594 63.1393C698.34 81.6941 701.896 95.4508 708.624 110.734C711.979 118.25 714.814 125.548 720.552 132.258C741.824 157.155 774.689 167.959 828.173 170.291C883.535 172.69 953.845 162.137 1010.16 144.354C1015.39 142.688 1020.38 141.01 1025.14 139.321C1097.59 114.022 1111.93 96.0883 1148.49 91.4916C1154.45 90.7531 1160.46 90.3331 1166.47 90.2333C1192.31 89.6126 1214.72 93.5886 1240.97 100.769C1278.82 111.019 1312.19 126.185 1349.15 139.959C1360.49 144.22 1372.9 148.498 1386.64 152.558C1430.43 165.576 1495.49 179.4 1581.38 181.782" stroke="#181645" stroke-miterlimit="10"/>
<path d="M-79.8025 327.687C-16.7231 334.851 85.7139 341.561 196.589 303.462C271.983 277.307 325.382 238.386 362.861 213.221C376.03 204.38 388.361 195.069 400.507 186.144C467.898 136.586 512.909 91.7596 546.076 61.1426C577.7 32.0354 598.922 15.6951 630.714 24.1337C651.432 29.6532 671.48 43.7118 684.65 57.284C703.691 76.9124 706.124 92.0448 711.492 107.613C714.21 115.414 716.743 122.863 722.38 129.691C742.763 154.252 778.766 164.318 832.031 162.053C888.031 159.671 957.72 147.978 1012.85 130.329C1018.01 128.662 1022.97 126.985 1027.71 125.296C1101.9 99.762 1116.39 83.3546 1150.67 78.8921C1156.59 78.1476 1162.55 77.7108 1168.52 77.5835C1194.7 76.8453 1217.17 80.6704 1242.47 87.6494C1278.28 97.5811 1311.07 112.562 1349.72 126.839C1361.01 131.067 1373.32 135.345 1386.88 139.472C1430.25 152.742 1494.99 167.723 1579.91 172.723" stroke="#181645" stroke-miterlimit="10"/>
<path d="M-80.6077 335.086C-21.1184 343.474 83.2311 352.986 198.72 313.897C276.647 287.357 331.472 247.009 368.28 221.274C381.701 211.946 394.166 202.25 406.312 192.754C473.25 140.747 518.009 92.0953 552.133 58.5424C584.36 27.0026 607.227 8.91758 638.129 16.9367C658.059 22.1374 678.023 36.8672 690.857 51.3453C709.194 72.0139 710.452 88.5219 714.562 104.359C716.676 112.445 718.874 120.028 724.427 127.007C743.72 151.232 782.708 157.205 835.873 153.715C892.611 150.041 961.562 133.718 1015.48 116.203C1020.51 114.525 1025.55 112.848 1030.23 111.17C1106.11 85.2505 1120.82 70.504 1152.81 66.1924C1158.69 65.4276 1164.59 64.9685 1170.51 64.8168C1197.05 63.9444 1219.43 67.652 1243.93 74.4968C1277.87 83.9419 1309.92 98.5542 1350.27 113.519C1361.53 117.713 1373.76 121.907 1387.18 126.185C1430.11 139.606 1494.55 155.829 1578.43 163.446" stroke="#181645" stroke-miterlimit="10"/>
<path d="M-81.262 342.4C-25.3796 352.08 80.8656 364.327 201.002 324.265C281.529 297.339 337.73 255.481 373.799 229.293C387.355 219.462 400.071 209.396 412.217 199.431C478.803 145.21 523.277 92.3974 558.172 55.9589C590.92 21.8859 615.296 2.05611 645.41 9.70618C664.552 14.5881 684.465 29.9889 696.947 45.3562C714.596 67.1656 714.646 84.9486 717.498 101.088C718.958 109.476 720.854 117.176 726.306 124.289C744.626 148.179 786.701 151.602 839.664 145.344C897.09 138.633 965.387 119.424 1018.08 102.027C1023.11 100.349 1028.03 98.6718 1032.71 97.1283C1110.3 70.8228 1125.18 57.6869 1154.91 53.5095C1160.78 52.7556 1166.68 52.3077 1172.59 52.1674C1197.2 51.2406 1221.8 54.3576 1245.4 61.3945C1277.38 70.437 1308.78 84.7641 1350.84 100.333C1362.05 104.476 1374.16 108.721 1387.36 113.016C1449.09 132.767 1512.56 146.592 1576.91 154.303" stroke="#181645" stroke-miterlimit="10"/>
<path d="M-82 349.664C-29.7078 360.603 78.4499 375.618 203.2 334.566C286.193 307.253 343.887 263.987 379.352 237.262C536.766 118.535 586.592 -14.0661 652.808 2.39157C671.162 6.95476 691.025 23.0266 703.138 39.2998C729.007 74.0271 712.7 100.366 728.302 121.504C766.553 173.344 938.612 115.448 1035.31 82.9186C1129.59 51.1943 1133.08 40.9774 1174.56 39.2998C1246.95 36.3304 1284.58 65.404 1387.62 99.6951C1448.88 119.986 1511.73 135.137 1575.51 144.992" stroke="#181645" stroke-miterlimit="10"/>
<path d="M-82 354.462C-28.3154 366.424 76.4871 380.13 195.751 340.84C278.073 313.645 333.318 269.959 371.383 241.859C523.445 129.742 570.872 8.31358 638.33 19.1512C664.686 23.3788 691.444 31.851 709.11 44.8359C743.821 70.3697 730.919 93.2025 751.051 113.619C795.123 158.345 955.606 108.134 1047.68 78.2882C1137.36 49.1139 1140.99 40.8599 1184.82 42.5376C1257.67 45.3225 1293.58 71.0576 1390.65 103.973C1451.21 124.498 1513.57 139.276 1576.91 148.112" stroke="#181645" stroke-miterlimit="10"/>
<path d="M-82 359.462C7.52957 380.072 100.985 375.866 188.302 347.299C269.953 320.239 322.648 276.1 363.415 246.64C509.923 140.848 555.79 28.7811 623.869 36.0957C658.412 39.8201 690.891 40.7595 715.083 50.5738C756.587 67.3502 748.501 85.9721 773.8 105.936C822.133 144.035 972.601 101.004 1060.06 73.8427C1145 47.2185 1148.77 40.7595 1195.11 45.9602C1268.22 54.1472 1302.59 77.0638 1393.69 108.453C1453.53 129.198 1515.38 143.604 1578.23 151.434" stroke="#181645" stroke-miterlimit="10"/>
<path d="M-82 368.354C4.92261 389.21 95.931 385.505 180.87 357.65C261.833 330.707 311.995 286.115 355.446 255.314C496.1 155.628 541.195 64.7667 609.391 56.9321C652.053 52.0334 689.784 54.0466 721.072 60.1868C768.348 69.4474 765.596 82.6505 796.566 102.128C847.835 134.372 989.629 97.9338 1072.42 73.2892C1152.75 49.3827 1156.49 44.4001 1205.37 53.2581C1278.72 66.545 1311.59 86.9284 1396.74 116.807C1455.87 137.798 1517.24 151.839 1579.61 158.648" stroke="#181645" stroke-miterlimit="10"/>
<path d="M-82 381.892C2.30894 402.985 90.8684 399.762 173.421 372.598C253.713 345.756 301.325 300.711 347.477 268.584C482.175 174.82 526.8 92.6323 594.93 82.3651C645.544 74.7486 690.237 63.1057 727.044 74.3963C777.692 89.9313 779.588 91.005 819.315 102.916C867.111 139.17 1006.64 99.41 1084.8 77.3322C1160.46 56.026 1164.19 52.503 1215.66 65.1692C1289.19 83.271 1320.56 101.457 1399.78 129.759C1458.19 150.987 1519.08 164.659 1580.97 170.442" stroke="#181645" stroke-miterlimit="10"/>
<path d="M-82 395.749C-0.308593 417.092 85.8069 414.4 166.006 387.999C245.627 361.29 290.672 315.742 339.542 282.307C468.15 194.298 512.272 120.028 580.384 108.251C639.102 98.1181 687.955 82.0462 733.05 89.0755C791.197 98.1348 796.348 94.5782 842.097 104.174C892.242 136.436 1023.63 101.205 1097.1 81.8281C1168.1 63.1224 1171.82 60.8911 1225.86 77.5333C1299.67 100.215 1329.45 116.472 1402.75 143.163C1460.45 164.631 1520.87 177.935 1582.26 182.688" stroke="#181645" stroke-miterlimit="10"/>
<path d="M-82 409.875C-2.94493 431.424 80.7034 429.236 158.524 403.584C237.474 376.993 279.918 330.942 331.539 296.214C454.007 213.825 497.626 147.072 565.99 134.321C632.643 121.89 686.546 111.69 738.989 103.922C803.746 94.3264 813.04 98.3024 864.812 105.6C917.39 133.969 1040.63 103.251 1109.55 86.5085C1175.88 70.4031 1179.61 69.363 1236.21 90.0819C1310.16 117.159 1338.46 131.738 1405.79 156.768C1462.78 178.468 1522.74 191.404 1583.62 195.136" stroke="#181645" stroke-miterlimit="10"/>
<path d="M-82 424.185C-19.5413 442.254 64.7939 448.344 151.092 419.371C229.421 393.065 269.198 346.309 323.571 310.324C439.781 233.42 482.947 173.931 551.512 160.594C626.268 146.065 685.724 131.856 744.978 118.971C815.942 103.52 831.377 92.7328 887.578 107.228C945.809 122.243 1057.62 105.55 1121.91 91.3907C1183.58 77.8689 1187.34 77.9695 1246.48 102.815C1320.8 134.137 1347.4 147.24 1408.91 170.559C1447.14 185.054 1504.82 204.011 1585.06 207.769" stroke="#181645" stroke-miterlimit="10"/>
<path d="M-82 438.747C-18.0817 457.805 62.8311 462.62 143.643 435.392C221.301 409.221 258.444 361.861 315.602 324.667C425.471 253.149 468.016 200.756 537.051 187.1C619.927 170.693 685.053 152.356 750.951 134.254C828.307 112.999 847.616 96.8261 910.327 109.09C970.101 120.833 1074.6 107.949 1134.29 96.5073C1191.33 85.5691 1195.22 86.5757 1256.76 115.8C1331.45 151.249 1356.31 163.043 1411.94 184.584C1449.62 199.179 1506.44 218.137 1586.42 220.653" stroke="#181645" stroke-miterlimit="10"/>
<path d="M-82 453.477C-16.5719 473.609 60.8682 477.065 136.194 451.598C213.182 425.561 247.657 377.58 307.633 339.196C411.11 272.962 453.085 227.599 522.573 213.791C613.652 195.69 684.465 173.092 756.923 149.722C840.805 122.679 863.873 101.49 933.076 111.136C994.477 119.692 1091.58 110.616 1146.66 101.809C1198.97 93.4204 1203.11 95.3497 1267.03 128.97C1342.19 168.478 1365.2 179.081 1414.98 198.793C1452.12 213.506 1508.05 232.531 1587.78 233.705" stroke="#181645" stroke-miterlimit="10"/>
<path d="M-82 468.425C-15.1794 489.513 58.9221 491.711 128.746 468.005C205.062 442.086 236.836 393.434 299.664 353.925C396.682 292.893 436.946 246.372 508.111 240.684C609.005 232.615 683.929 194.046 762.895 165.392C853.371 132.577 883.686 89.8975 955.824 113.385C1016.09 133.063 1108.49 113.385 1159.04 107.311C1206.65 101.524 1211.04 104.258 1277.31 142.324C1352.99 185.825 1374.06 195.388 1418.02 213.205C1454.6 228.052 1509.68 247.093 1589.14 246.976" stroke="#181645" stroke-miterlimit="10"/>
<path d="M-82 483.859C-13.7199 505.971 56.9593 506.809 121.314 485C196.942 459.198 225.982 409.808 291.695 369.242C382.288 313.326 421.998 275.009 493.633 268.164C602.68 257.713 683.459 215.604 768.885 181.648C866.02 143.062 898.684 97.5812 978.59 116.22C1041.97 131.017 1125.52 116.857 1171.4 113.401C1214.33 110.164 1219.11 113.687 1287.58 156.282C1363.86 203.726 1382.92 212.332 1421.07 228.203C1457.09 243.201 1511.31 262.225 1590.51 260.816" stroke="#181645" stroke-miterlimit="10"/>
<path d="M-82 500.267C-12.2771 523.402 54.9797 522.949 113.865 502.783C188.822 477.099 215.077 426.903 283.727 385.348C367.709 334.499 407.033 304.435 479.172 296.433C596.406 283.431 683.023 237.967 774.857 198.71C878.737 154.303 914.102 106.976 1001.34 119.86C1067.67 129.658 1142.46 121.035 1183.78 120.28C1222 119.575 1227.22 123.87 1297.86 171.029C1374.78 222.381 1391.81 230.132 1424.11 244.006C1459.55 259.206 1513.02 278.163 1591.87 275.462" stroke="#181645" stroke-miterlimit="10"/>
<path d="M-82 516.959C-10.8175 541.117 53.0169 539.339 106.416 520.952C180.702 495.368 204.122 444.267 275.758 401.839C353.181 355.972 392.019 334.213 464.694 325.087C590.048 309.351 682.62 260.699 780.829 216.141C891.554 165.929 929.905 117.445 1024.09 123.87C1093.21 128.584 1159.42 125.548 1196.15 127.544C1229.63 129.339 1235.37 134.372 1308.13 186.161C1385.79 241.406 1400.53 248.452 1427.14 260.196C1461.99 275.647 1514.55 294.503 1593.23 290.494" stroke="#181645" stroke-miterlimit="10"/>
<path d="M-82 535.128C-9.35799 560.293 51.0037 557.105 98.9675 540.58C172.532 514.946 193.083 462.956 267.789 419.79C338.619 378.855 376.987 365.434 450.233 355.2C583.639 336.562 682.251 284.907 786.735 235.031C904.17 179.014 946.43 136.989 1046.77 129.339C1118.27 123.903 1176.3 131.52 1208.46 136.268C1237.27 140.529 1243.52 146.333 1318.35 202.736C1396.76 261.89 1409.24 268.164 1430.11 277.811C1464.3 293.631 1516.11 312.269 1594.52 306.968" stroke="#181645" stroke-miterlimit="10"/>
<path d="M-82 553.112C-7.91521 579.3 49.0408 574.804 91.5356 560.041C164.412 534.524 181.944 481.292 259.82 437.573C324.04 401.52 361.922 396.471 435.755 385.146C577.197 363.455 681.899 308.931 792.791 253.77C917.088 191.915 963.324 146.401 1069.6 134.657C1143.42 126.537 1193.36 137.224 1220.89 144.824C1245.03 151.534 1251.86 158.077 1328.68 219.16C1407.93 282.173 1418.03 287.826 1433.23 295.292C1466.65 311.699 1517.8 329.868 1595.96 323.275" stroke="#181645" stroke-miterlimit="10"/>
<path d="M-82 571.114C-6.50599 598.308 47.1786 592.521 84.0868 579.502C156.226 554.102 170.687 499.361 251.851 455.356C309.462 424.118 346.84 427.507 421.293 415.093C570.688 390.18 681.563 332.888 798.763 272.493C929.922 204.816 980.268 155.745 1092.35 139.959C1168.77 129.205 1210.41 142.844 1233.27 153.38C1252.78 162.372 1260.12 169.804 1338.96 235.585C1419.07 302.472 1426.71 307.556 1436.27 312.756C1468.6 330.355 1519.41 347.484 1597.32 339.599" stroke="#181645" stroke-miterlimit="10"/>
</svg>
