<svg width="26" height="27" viewBox="0 0 26 27" fill="none" xmlns="http://www.w3.org/2000/svg">
<path d="M13 0C5.81736 0 0 6.13324 0 13.7059C0 20.1471 4.19208 25.4929 9.84791 27C9.78264 26.8285 9.75055 26.5882 9.75055 26.3491V24.0185H8.12528C7.24792 24.0185 6.43472 23.6079 6.07736 22.8532C5.65472 22.0309 5.58945 20.763 4.51736 19.9744C4.19209 19.7003 4.45209 19.4262 4.80945 19.46C5.49209 19.6653 6.04417 20.1459 6.56417 20.8644C7.08417 21.5841 7.31209 21.7556 8.28681 21.7556C8.74153 21.7556 9.45626 21.7218 10.1068 21.618C10.4642 20.658 11.0815 19.8018 11.8294 19.3912C7.47472 18.843 5.39472 16.5812 5.39472 13.4971C5.39472 12.1603 5.94681 10.8924 6.85736 9.79591C6.56528 8.73327 6.17472 6.54033 6.98791 5.68415C8.93847 5.68415 10.1079 7.02091 10.4 7.36268C11.3747 7.01974 12.4479 6.81445 13.5521 6.81445C14.6894 6.81445 15.7294 7.01974 16.7042 7.36268C16.9963 7.01974 18.1668 5.68415 20.1163 5.68415C20.8963 6.5065 20.5389 8.73327 20.2136 9.79591C21.1242 10.8586 21.6442 12.1603 21.6442 13.4971C21.6442 16.5812 19.5963 18.843 15.2747 19.3224C16.4774 19.9733 17.3226 21.8233 17.3226 23.1938V26.3153C17.3226 26.4179 17.2906 26.5206 17.2906 26.6232C22.36 24.7732 26 19.7026 26 13.7059C26 6.13324 20.1826 0 13 0Z" fill="#7770E0"/>
</svg>
