<?xml version="1.0" encoding="UTF-8"?>
<svg id="Layer_1" data-name="Layer 1" xmlns="http://www.w3.org/2000/svg" xmlns:xlink="http://www.w3.org/1999/xlink" viewBox="0 0 60 60">
  <defs>
    <style>
      .cls-1 {
        fill: #f7f7fc;
      }

      .cls-2 {
        fill: url(#linear-gradient);
      }
    </style>
    <linearGradient id="linear-gradient" x1="0" y1="32" x2="75.5" y2="32" gradientTransform="translate(0 62) scale(1 -1)" gradientUnits="userSpaceOnUse">
      <stop offset="0" stop-color="#53e4e1"/>
      <stop offset="1" stop-color="#49c9c6"/>
    </linearGradient>
  </defs>
  <circle class="cls-2" cx="30" cy="30" r="30"/>
  <path class="cls-1" d="m20,22c0-.55-.45-1-1-1s-1,.45-1,1h2Zm21,17c.55,0,1-.45,1-1s-.45-1-1-1v2Zm-18.71-7.71c-.39.39-.39,1.02,0,1.41.39.39,1.02.39,1.41,0l-1.41-1.41Zm10-2l.71-.71h0l-.71.71Zm1.41,0l-.71-.71h0l.71.71Zm7.29-7.29h1c0-.55-.45-1-1-1v1Zm-1,4c0,.55.45,1,1,1s1-.45,1-1h-2Zm-3-5c-.55,0-1,.45-1,1s.45,1,1,1v-2Zm-19,1v14h2v-14h-2Zm3,17h20v-2h-20v2Zm2.71-6.29l5.29-5.29-1.41-1.41-5.29,5.29,1.41,1.41Zm5.29-5.29l2.59,2.59,1.41-1.41-2.59-2.59-1.41,1.41Zm5.41,2.59l7.29-7.29-1.41-1.41-7.29,7.29,1.41,1.41Zm5.59-8v4h2v-4h-2Zm1-1h-4v2h4v-2Zm-9.41,9c.78.78,2.05.78,2.83,0l-1.41-1.41h0l-1.41,1.41Zm-2.59-2.59h0l1.41-1.41c-.78-.78-2.05-.78-2.83,0l1.41,1.41Zm-11,8.59c0,1.66,1.34,3,3,3v-2c-.55,0-1-.45-1-1h-2Z"/>
</svg>