<svg width="29" height="29" viewBox="0 0 29 29" fill="none" xmlns="http://www.w3.org/2000/svg">
<path d="M16.3577 14.2916C16.3577 18.8479 12.6959 22.5415 8.17901 22.5415C3.66213 22.5415 0 18.8471 0 14.2916C0 9.73619 3.66185 6.0415 8.17901 6.0415C12.6962 6.0415 16.3577 9.73536 16.3577 14.2916Z" fill="#7770E0"/>
<path d="M25.3299 14.2918C25.3299 18.5805 23.499 22.0586 21.2404 22.0586C18.9818 22.0586 17.1509 18.5805 17.1509 14.2918C17.1509 10.003 18.9815 6.5249 21.2401 6.5249C23.4987 6.5249 25.3296 10.0019 25.3296 14.2918" fill="#7770E0"/>
<path d="M28.9998 14.2919C28.9998 18.1335 28.356 21.2498 27.5615 21.2498C26.7671 21.2498 26.1235 18.1344 26.1235 14.2919C26.1235 10.4494 26.7674 7.33398 27.5615 7.33398C28.3557 7.33398 28.9998 10.4491 28.9998 14.2919Z" fill="#7770E0"/>
</svg>
