<svg width="1296" height="140" viewBox="0 0 1296 140" fill="none" xmlns="http://www.w3.org/2000/svg">
<mask id="mask0_148_661" style="mask-type:alpha" maskUnits="userSpaceOnUse" x="0" y="0" width="1296" height="140">
<path d="M0 56C0 25.0721 25.0721 0 56 0H1296V84C1296 114.928 1270.93 140 1240 140H0V56Z" fill="#EFF0F6"/>
</mask>
<g mask="url(#mask0_148_661)">
<path d="M-102.069 -128.153C-46.5017 -100.289 2.72974 -61.2752 42.5552 -13.5455C101.251 57.6751 98.0583 101.308 154.435 141.994C209.228 181.506 284.433 192.394 345.448 177.468C428.703 157.084 432.469 101.608 539.191 13.7421C601.952 -37.886 719.644 -134.811 858.456 -125.425C928.585 -120.677 998.305 -89.1867 1063.11 -59.9344C1142.55 -24.0785 1153.95 -5.65938 1196.82 2.82706C1247.74 12.9235 1326.47 5.74683 1439.68 -84.4932" stroke="url(#paint0_linear_148_661)" stroke-opacity="0.1" stroke-miterlimit="10"/>
<path d="M-103.624 -117.948C-53.5523 -93.4688 -8.41269 -59.9842 29.5398 -19.1672C33.169 -15.2105 36.7983 -11.1447 40.4548 -6.96967C99.7509 62.0133 97.4042 103.681 153.071 143.358C177.336 160.719 204.811 173.084 233.897 179.732C254.731 184.475 276.099 186.457 297.45 185.626C313.416 184.996 329.261 182.571 344.685 178.395C361.872 173.977 378.21 166.749 393.039 157.001C420.326 138.992 439.428 114.678 468.816 84.1709C490.954 61.211 515.039 40.212 540.801 21.4094C554.445 11.313 570.381 -0.857231 588.8 -13.3277C638.082 -46.7822 701.144 -83.1293 776.812 -95.6816C802.488 -100.063 828.577 -101.527 854.582 -100.048C858.566 -99.8293 862.523 -99.5018 866.425 -99.1198C905.064 -95.3814 941.875 -85.476 979.478 -72.3234C1007.61 -62.609 1034.22 -50.4933 1060.6 -39.1144C1071.66 -34.2572 1081.53 -29.8367 1090.46 -25.6889C1144.35 -0.557086 1158.35 12.923 1195.16 18.8171C1223.13 23.2923 1259.31 22.5009 1305.24 6.56499C1342.89 -6.47847 1387.48 -29.9731 1439.68 -68.8306" stroke="url(#paint1_linear_148_661)" stroke-opacity="0.1" stroke-miterlimit="10"/>
<path d="M-105.07 -107.688C-55.5169 -84.1334 -10.6553 -51.7724 27.3296 -12.1812C30.968 -8.36095 34.6063 -4.44972 38.2447 -0.447543C98.2775 66.3252 96.8313 105.974 151.734 144.722C176.057 162.311 203.619 174.914 232.833 181.806C253.79 186.58 275.298 188.489 296.768 187.482C312.759 186.667 328.591 183.918 343.921 179.296C361.023 174.353 377.272 166.835 392.111 157.002C420.49 138.446 440.629 114.924 469.69 86.4361C491.931 64.8137 516.295 45.4874 542.411 28.7502C556.055 19.7998 571.637 8.83023 589.865 -2.03023C638.437 -30.9823 697.651 -61.3534 772.556 -71.2588C798.434 -74.8244 824.587 -75.9936 850.68 -74.7516C854.719 -74.5333 858.703 -74.2605 862.632 -73.9057C901.926 -70.4675 937.81 -61.981 976.176 -50.2747C1005.07 -41.4335 1031.43 -29.5361 1058.04 -18.3209C1069.09 -13.682 1079.08 -9.45246 1088.22 -5.49576C1142.28 17.9988 1156.77 30.3874 1193.44 34.7534C1221.38 38.0825 1257.29 36.2542 1303.46 20.1273C1341.18 6.92009 1386.34 -16.1379 1439.68 -53.1126" stroke="url(#paint2_linear_148_661)" stroke-opacity="0.1" stroke-miterlimit="10"/>
<path d="M-106.789 -97.5916C-57.6413 -74.9291 -12.9627 -43.6246 25.1192 -5.16854C28.7485 -1.45742 32.405 2.30827 36.0343 6.15581C96.8585 70.6909 96.1763 108.375 150.342 146.087C175.993 163.933 201.261 176.785 231.687 183.907C252.784 188.72 274.452 190.557 296.058 189.365C312.079 188.357 327.902 185.275 343.13 180.196C360.155 174.732 376.337 166.926 391.21 157.002C420.627 137.9 441.775 115.224 470.536 88.7826C492.901 68.486 517.564 50.875 544.021 36.3086C557.802 28.5043 572.919 18.7354 590.929 9.4849C639.037 -15.2376 694.158 -39.4417 768.299 -46.7548C794.381 -49.494 820.626 -50.3604 846.833 -49.3471C850.898 -49.1561 855.019 -48.9105 858.839 -48.5831C897.393 -45.4253 935.554 -38.5627 972.792 -28.0901C1002.45 -20.1494 1028.6 -8.36118 1055.53 2.55385C1066.58 7.02902 1076.65 11.0403 1086.04 14.806C1140.23 36.636 1155.24 47.8785 1191.75 50.7983C1219.69 53.0359 1255.41 50.0888 1301.75 33.7708C1339.54 20.5636 1385.19 -2.33062 1439.68 -37.5589" stroke="url(#paint3_linear_148_661)" stroke-opacity="0.1" stroke-miterlimit="10"/>
<path d="M-108.373 -87.4133C-59.6996 -65.6319 -15.2565 -35.4244 22.9084 1.81705C26.5376 5.41901 30.2215 9.02097 33.8234 12.7321C95.3025 75.1388 95.5754 110.613 148.977 147.478C175.201 165.515 199.623 178.722 230.595 186.008C251.814 190.869 273.625 192.624 295.348 191.22C311.442 190.053 327.295 186.646 342.447 181.096C359.358 175.156 375.456 167.116 390.364 157.165C420.817 137.491 443.111 115.743 471.463 91.102C491.465 73.7471 515.123 58.5752 545.713 43.8399C559.602 37.1272 574.392 28.5316 592.102 20.9184C640.019 0.316234 690.774 -17.5571 764.014 -22.2779C790.263 -24.2139 816.594 -24.7877 842.902 -23.997C847.023 -23.8333 851.089 -23.615 854.991 -23.3421C893.616 -20.8097 931.956 -15.0039 969.599 -5.9872C1000.08 1.053 1025.84 12.7594 1053.04 23.2924C1063.96 27.6038 1074.3 31.4787 1083.91 34.9988C1138.21 55.3007 1153.74 65.2607 1190.14 66.7069C1218.08 67.8257 1253.55 63.8144 1300.08 47.3327C1337.87 33.9345 1384.07 11.4496 1439.68 -21.9777" stroke="url(#paint4_linear_148_661)" stroke-opacity="0.1" stroke-miterlimit="10"/>
<path d="M-109.927 -77.2351C-61.7407 -56.32 -17.5443 -27.2098 20.6985 8.80263C24.3278 12.2682 28.0116 15.7064 31.6136 19.2538C93.8294 79.2864 94.9482 112.987 147.559 148.815C174.355 167.071 197.932 180.632 229.422 188.082C250.782 192.984 272.756 194.658 294.612 193.048C310.71 191.712 326.519 187.988 341.519 181.997C358.329 175.554 374.358 167.233 389.3 157.192C420.817 137 444.285 116.261 472.173 93.4214C492.775 76.6123 516.952 63.4051 547.187 51.344C561.24 45.7227 575.702 38.3551 593.03 32.2427C641.138 15.5972 687.227 4.21831 759.703 2.03531C784.889 1.27125 812.75 0.316201 838.973 1.21669C843.148 1.35313 847.16 1.54413 851.144 1.76243C889.779 3.66769 928.222 8.41031 966.161 15.952C997.406 22.0917 1022.97 33.7162 1050.48 44.0309C1061.53 48.1786 1071.82 51.7533 1081.67 55.1369C1136.08 74.0472 1152.21 83.325 1188.36 82.752C1216.31 82.3154 1251.56 77.6492 1298.25 60.9219C1336.07 47.2781 1382.84 25.257 1439.57 -6.34198" stroke="url(#paint5_linear_148_661)" stroke-opacity="0.1" stroke-miterlimit="10"/>
<path d="M-111.51 -67.0837C-63.8009 -47.0139 -19.8438 -18.9918 18.4879 15.7886C22.1172 19.1177 25.8283 22.4195 29.403 25.8032C92.3829 83.6529 94.3476 115.279 146.167 150.18C173.455 168.599 196.24 182.543 228.303 190.184C249.763 195.097 271.85 196.689 293.793 194.904C309.943 193.382 325.754 189.331 340.646 182.898C357.319 175.925 373.267 167.334 388.263 157.247C420.817 136.482 445.567 116.644 472.855 95.714C494.085 79.3414 518.807 68.2627 548.633 58.8485C562.904 54.3187 578.431 51.6991 593.93 43.813C644.221 41.7118 683.788 21.9829 755.255 26.6218C780.496 28.2864 808.793 25.9669 834.907 26.6218C839.137 26.7583 843.23 26.8947 847.159 27.0857C889.237 29.0777 921.436 31.3971 962.695 38.0007C994.704 43.2127 1020 54.7826 1047.81 64.7699C1058.72 68.7538 1069.23 72.1375 1079.32 75.3302C1133.76 92.5759 1150.46 99.889 1186.56 98.5246C1214.53 97.4058 1249.57 91.2388 1296.42 74.3751C1334.3 60.7313 1381.56 38.9012 1439.47 9.13047" stroke="url(#paint6_linear_148_661)" stroke-opacity="0.1" stroke-miterlimit="10"/>
<path d="M-113.093 -56.9055C-65.8658 -37.6822 -22.1503 -10.767 16.278 22.7469C19.9346 25.9669 23.6457 29.1049 27.1931 32.3249C91.0735 87.9369 93.8568 117.544 144.885 151.544C172.855 170.154 194.685 184.453 227.266 192.285C248.912 197.26 271.212 198.761 293.33 196.733C311.312 195.232 326.075 189.829 340.101 183.771C356.649 176.282 372.541 167.419 387.609 157.275C421.2 135.963 447.341 117.162 474.001 98.0061C495.831 82.2611 521.209 73.1744 550.407 66.3252C564.978 62.9142 580.15 62.1229 595.186 55.2464C645.477 59.1213 680.405 48.2881 751.162 51.0441C776.54 52.0538 805.164 51.4535 831.197 52.0265C835.454 52.0265 839.601 52.2175 843.503 52.3539C886.29 53.9639 917.562 54.7825 959.558 60.2674C992.303 64.5788 1017.35 76.0668 1045.46 85.7539C1056.37 89.5742 1066.96 92.7396 1077.3 95.7412C1131.88 111.513 1149.1 117.571 1185.06 114.651C1213.03 112.441 1247.82 105.21 1294.87 88.1552C1332.77 74.5115 1380.58 52.8997 1439.63 24.9572" stroke="url(#paint7_linear_148_661)" stroke-opacity="0.1" stroke-miterlimit="10"/>
<path d="M-114.649 -46.7549C-67.9262 -28.3485 -24.4665 -2.55103 14.0672 29.6503C17.7238 32.7611 21.4622 35.7628 25.146 38.7917C89.6813 92.1662 93.3652 119.727 143.52 152.799C172.063 171.6 193.047 186.281 226.174 194.249C247.924 199.279 270.351 200.717 292.565 198.506C310.793 196.841 325.31 191.002 339.254 184.589C356.473 176.676 370.635 167.398 386.598 157.302C421.254 135.472 452.607 122.346 474.792 100.298C499.924 89.5739 523.419 69.1082 552.043 73.8289C566.942 76.2848 581.787 72.5191 596.304 66.6796C646.622 76.5031 677.103 70.3088 746.959 75.4935C772.446 77.3763 801.535 76.9397 827.349 77.349C831.687 77.349 835.835 77.349 839.765 77.5946C883.206 78.8226 913.578 78.0585 956.283 82.3699C989.874 85.7263 1014.6 97.1598 1042.98 106.547C1053.89 110.203 1064.59 113.178 1075.15 115.961C1129.72 130.287 1147.62 134.899 1183.45 130.614C1211.45 127.258 1246.02 118.963 1293.2 101.717C1331.16 87.9093 1379.38 66.6796 1439.68 40.5654" stroke="url(#paint8_linear_148_661)" stroke-opacity="0.1" stroke-miterlimit="10"/>
<path d="M-116.231 -36.6038C-69.9859 -18.976 -26.7711 5.75233 11.8573 36.6907C15.5139 39.665 19.2523 42.3938 22.9634 45.3681C88.4538 96.5051 92.7379 122.019 142.156 154.191C171.299 173.156 191.41 188.219 225.056 196.378C246.943 201.431 269.521 202.787 291.856 200.389C310.33 198.561 324.601 192.203 338.491 185.517C355.382 177.331 369.38 167.617 385.671 157.329C421.363 134.899 454.354 123.329 475.72 102.563C501.725 93.0123 526.694 73.8564 553.736 81.3059C568.526 85.3717 583.452 82.9431 597.396 78.1132C647.742 93.8854 673.801 92.3846 742.73 99.9433C768.326 102.672 797.633 102.454 823.501 102.672H835.972C880.123 103.491 909.649 101.226 953.009 104.309C987.391 106.738 1011.81 118.144 1040.49 127.204C1051.41 130.696 1062.19 133.452 1072.99 136.017C1127.57 148.952 1146.12 152.144 1181.82 146.441C1209.81 141.939 1244.17 132.579 1291.51 115.17C1329.5 101.226 1378.37 80.3508 1439.71 56.0376" stroke="url(#paint9_linear_148_661)" stroke-opacity="0.1" stroke-miterlimit="10"/>
<path d="M-117.813 -26.48C-72.1011 -9.60148 -29.1745 14.0278 9.53826 43.6218C13.2221 46.3506 16.9605 49.0793 20.6716 51.8081C86.8715 100.68 92.0834 124.147 140.737 155.501C170.481 174.602 189.855 190.074 223.91 198.397C245.919 203.515 268.647 204.798 291.092 202.19C309.839 200.198 323.838 193.485 337.645 186.363C354.209 177.74 368.071 167.78 384.689 157.329C421.445 134.353 456.046 124.284 476.43 104.828C503.336 96.4233 528.277 93.4217 555.21 88.7555C570.654 91.7025 584.899 93.3125 598.379 89.5195C648.724 111.35 670.309 114.46 738.364 124.311C764.069 128.05 793.758 128.241 819.518 127.94C823.938 127.94 828.168 127.94 832.07 127.94C876.931 127.367 905.474 124.53 949.598 126.44C984.799 127.94 1008.89 139.292 1037.9 148.051C1048.82 151.353 1059.73 153.946 1070.65 156.238C1125.22 167.78 1144.32 169.499 1179.96 162.377C1207.98 156.756 1242.09 146.332 1289.66 128.732C1327.67 114.679 1376.98 94.1311 1439.55 71.6189" stroke="url(#paint10_linear_148_661)" stroke-opacity="0.1" stroke-miterlimit="10"/>
<path d="M-119.369 -16.3293C-74.1079 -0.209589 -31.3947 22.3232 7.46391 50.5798C11.1205 53.3086 14.8861 55.8463 18.5973 58.4113C85.6703 104.991 91.6463 126.439 139.427 156.838C169.771 176.157 188.135 191.984 222.845 200.498C245.043 205.676 267.985 206.868 290.601 204.018C309.702 201.862 323.482 194.74 336.99 187.263C353.362 178.286 367.006 167.998 383.897 157.247C421.663 133.725 457.929 125.157 477.385 107.011C505.164 99.7793 530.487 98.8242 556.928 96.0955C572.564 100.462 586.59 103.572 599.579 100.789C649.925 128.486 667.061 136.454 734.216 148.597C760.03 153.263 790.074 153.59 815.752 153.127C820.227 153.127 824.456 153.127 828.386 153.127C873.902 152.117 901.571 147.669 946.405 148.46C982.37 149.033 1006.19 160.358 1035.5 168.79C1046.41 171.955 1057.33 174.247 1068.65 176.457C1123.23 186.663 1143.09 186.881 1178.49 178.34C1206.51 171.573 1240.4 160.112 1288.13 142.321C1326.17 128.158 1376.13 107.938 1439.74 87.2543" stroke="url(#paint11_linear_148_661)" stroke-opacity="0.1" stroke-miterlimit="10"/>
<path d="M-120.951 -6.20557C-76.1763 9.19567 -33.7152 30.6419 5.254 57.5382C8.93783 60.267 12.7035 62.5046 16.4147 64.9332C84.3882 109.194 91.1282 128.622 138.063 158.175C169.007 177.631 186.499 193.84 221.754 202.544C244.034 207.756 267.075 208.875 289.755 205.846C308.857 203.499 322.719 195.968 336.144 188.109C352.08 178.777 365.615 168.162 382.915 157.383C421.745 133.289 459.621 126.248 478.176 109.385C506.856 103.299 532.452 104.227 558.484 103.736C574.284 109.494 588.118 114.133 600.589 112.359C650.962 146.032 663.623 158.748 729.905 173.183C755.828 178.804 786.227 178.859 811.768 178.64C816.298 178.64 820.555 178.64 824.484 178.64C870.709 177.194 897.479 172.392 943.022 170.836C979.751 169.581 1003.3 181.751 1032.91 189.938C1043.93 192.91 1055.11 195.278 1066.39 197.032C1120.96 205.928 1141.48 204.618 1176.74 194.658C1204.79 186.745 1238.44 174.247 1286.33 156.265C1324.53 141.993 1374.9 122.073 1439.66 103.218" stroke="url(#paint12_linear_148_661)" stroke-opacity="0.1" stroke-miterlimit="10"/>
<path d="M-122.534 -1.9209C-78.2396 12.8239 -36.032 33.2215 3.04338 58.7667C6.72721 61.2226 10.5202 63.4601 14.2586 65.725C83.1054 107.666 90.664 125.075 136.698 153.755C168.243 173.402 184.861 189.993 220.635 198.861C243.05 204.124 266.248 205.17 289.045 201.945C308.529 199.407 322.091 191.493 335.434 183.253C350.961 173.375 364.277 162.459 381.987 151.544C421.854 126.986 461.394 121.337 479.022 105.81C508.575 100.871 534.471 103.764 560.094 105.347C576.057 112.523 589.673 118.663 601.653 117.926C652.053 157.548 660.267 175.23 725.621 191.603C751.68 198.179 782.433 198.315 807.92 197.906L820.691 197.66C867.626 196.842 893.467 188.383 939.719 186.745C977.295 185.381 1000.49 196.705 1030.4 204.482C1041.54 207.301 1052.84 209.479 1064.23 211.004C1118.67 218.59 1139.98 215.698 1175.08 204.346C1203.15 195.286 1236.58 181.752 1284.64 163.578C1322.84 149.198 1373.78 129.605 1439.68 112.578" stroke="url(#paint13_linear_148_661)" stroke-opacity="0.1" stroke-miterlimit="10"/>
<path d="M-124.172 -0.202148C-80.3731 13.7935 -38.4277 33.0345 0.751017 57.1018C4.46214 59.4485 8.25513 61.5224 11.9935 63.6235C81.8499 103.3 90.0635 118.799 135.334 146.523C167.506 166.307 183.224 183.307 219.543 192.366C242.102 197.637 265.458 198.564 288.363 195.095C308.065 192.366 321.463 184.18 334.616 175.448C349.869 165.433 363.104 154.136 381.005 143.03C421.936 117.844 463.086 113.778 479.813 99.5612C510.266 95.7683 537.417 96.3686 561.676 104.309C579.058 110.012 591.229 120.682 602.608 120.682C653.008 166.252 656.746 188.901 721.227 207.484C747.369 215.07 778.531 215.261 803.881 214.688C808.52 214.688 812.832 214.469 816.734 214.36C864.378 213.105 889.292 203.09 936.281 200.252C974.62 197.933 997.542 209.257 1027.75 216.625C1039 219.325 1050.41 221.312 1061.91 222.574C1116.33 228.904 1138.32 224.402 1173.27 211.659C1201.35 201.426 1234.56 186.854 1282.78 168.517C1320.98 154.027 1372.5 134.762 1439.55 119.399" stroke="url(#paint14_linear_148_661)" stroke-opacity="0.1" stroke-miterlimit="10"/>
<path d="M-125.673 1.4624C-82.3526 14.7948 -40.6611 32.9358 -1.37781 55.5464C2.3606 57.7567 6.18088 59.6668 9.892 61.6315C80.6216 98.8518 89.572 112.277 133.969 139.292C166.714 159.212 181.559 176.621 218.561 185.845C241.237 191.273 264.757 192.2 287.79 188.573C307.764 185.654 320.971 176.976 333.96 167.998C348.914 157.656 361.985 145.977 380.349 134.708C422.29 108.975 465.077 106.438 480.932 93.5034C512.231 90.7746 539.928 93.8036 563.504 103.463C581.214 110.722 593.029 122.565 603.999 123.902C654.399 175.448 653.662 203.036 717.297 223.72C743.548 232.315 775.011 232.534 800.334 231.906L813.268 231.469C861.594 229.805 885.608 218.208 933.334 214.224C972.491 210.922 995.086 222.41 1025.62 229.368C1036.98 231.973 1048.5 233.797 1060.11 234.826C1114.47 239.929 1137.17 233.789 1171.99 219.654C1200.07 208.275 1233.03 192.666 1281.44 174.138C1332.68 153.751 1385.64 137.971 1439.68 126.985" stroke="url(#paint15_linear_148_661)" stroke-opacity="0.1" stroke-miterlimit="10"/>
<path d="M-127.255 2.00806C-84.4041 14.7423 -42.9663 31.8221 -3.58771 52.9813C0.177987 55.0551 3.99827 56.8288 7.70939 58.6298C79.3941 93.476 89.0539 105.019 132.605 131.106C166.005 151.162 179.922 168.981 217.333 178.395C240.153 183.847 263.837 184.645 286.971 180.742C307.164 177.631 320.208 168.571 333.06 159.212C347.686 148.542 360.593 136.509 379.231 125.075C422.236 98.7971 466.551 97.7875 481.587 86.1357C513.786 84.6621 541.92 89.9559 564.923 101.28C582.933 110.149 594.421 123.356 604.873 125.675C655.3 183.17 650.061 215.724 712.822 238.51C739.182 248.115 771.027 248.333 796.241 247.487C800.962 247.323 805.355 247.105 809.257 246.941C858.375 244.84 881.378 231.715 929.787 226.558C969.708 222.301 992.03 233.68 1022.86 240.42C1034.34 242.87 1045.98 244.475 1057.68 245.222C1112.01 249.124 1135.4 241.293 1170.08 225.794C1198.16 213.241 1230.91 196.623 1279.48 177.877C1331.17 157.38 1384.87 142.335 1439.68 132.988" stroke="url(#paint16_linear_148_661)" stroke-opacity="0.1" stroke-miterlimit="10"/>
<path d="M-128.838 0.452881C-86.4483 12.5779 -45.2618 28.572 -5.79833 48.2334C-2.03264 50.1709 1.81492 51.8081 5.52604 53.4727C78.1931 85.863 88.6715 95.3591 131.24 120.737C165.268 140.929 178.284 159.185 216.241 168.735C239.187 174.25 263.023 174.975 286.261 170.864C306.7 167.535 319.58 158.121 332.268 148.379C346.595 137.464 359.338 124.993 378.303 113.396C422.345 86.5725 468.352 87.0364 482.432 76.7217C515.505 76.3942 544.021 84.0893 566.533 97.0782C584.761 107.611 596.004 122.074 605.964 125.403C656.391 188.874 646.622 226.367 708.565 251.226C734.98 261.868 767.234 262.141 792.366 261.104C797.114 260.913 801.534 260.667 805.436 260.476C855.182 257.966 877.285 243.23 926.403 236.927C967.116 231.688 989.164 243.094 1020.24 249.507C1031.84 251.812 1043.6 253.226 1055.42 253.736C1109.72 256.465 1133.76 246.914 1168.31 230.051C1196.39 216.407 1228.94 198.67 1277.68 179.76C1329.75 159.055 1384.11 144.663 1439.6 136.891" stroke="url(#paint17_linear_148_661)" stroke-opacity="0.1" stroke-miterlimit="10"/>
<path d="M-130.393 -1.10254C-88.4674 10.4625 -47.5403 25.3824 -8.00793 43.5127C-4.21494 45.3136 -0.367384 46.7599 3.34374 48.288C77.0204 78.3043 87.9355 85.8084 129.877 110.367C164.505 130.669 176.648 149.361 215.123 159.103C238.203 164.698 262.207 165.34 285.553 160.986C306.237 157.411 318.953 147.697 331.505 137.546C345.531 126.221 358.083 113.478 377.376 101.717C422.482 74.4295 470.154 76.285 483.279 67.2801C513.403 67.6385 542.812 76.5018 568.116 92.8486C586.536 105.073 597.587 120.764 607.029 125.13C657.483 194.549 643.157 237.009 704.309 263.942C730.778 275.648 763.441 275.866 788.464 274.72C793.294 274.502 797.715 274.229 801.644 273.984C852.044 270.982 873.329 254.882 923.156 247.296C964.606 241.102 986.436 252.508 1017.82 258.593C1028.73 260.694 1040.25 261.022 1053.29 262.223C1107.38 267.216 1132.29 252.536 1166.7 234.28C1194.78 219.381 1227.11 200.716 1276.01 181.615C1328.51 160.705 1383.58 146.938 1439.74 140.684" stroke="url(#paint18_linear_148_661)" stroke-opacity="0.1" stroke-miterlimit="10"/>
<path d="M-131.976 -2.65796C-90.4945 8.36157 -49.814 22.2013 -10.2185 38.7646C-6.39827 40.4018 -2.55071 41.7389 1.1877 43.1033C75.7922 70.3909 87.5531 76.2577 128.512 99.9979C163.795 120.436 174.901 139.538 214.031 149.47C237.284 155.138 261.49 155.697 284.979 151.108C305.882 147.287 318.434 137.245 330.85 126.712C344.494 115.061 356.937 101.963 376.557 90.0379C422.727 62.0955 472.064 65.4791 484.234 57.8659C515.162 59.488 544.914 70.2474 569.726 88.7827C588.254 102.672 599.169 119.618 608.093 124.993C658.575 200.362 639.664 247.787 700.025 276.821C726.576 289.565 759.621 289.756 784.616 288.473C789.474 288.228 793.949 287.9 797.851 287.655C848.961 284.189 869.317 266.425 919.881 257.802C962.15 250.625 983.571 262.113 1015.39 267.817C1027.27 269.47 1039.23 270.49 1051.22 270.873C1105.38 274.393 1130.84 258.293 1165.14 238.673C1193.19 222.601 1225.34 202.927 1274.29 183.634C1327.18 162.562 1382.91 149.485 1439.66 144.831" stroke="url(#paint19_linear_148_661)" stroke-opacity="0.1" stroke-miterlimit="10"/>
<path d="M-133.558 -4.21338C-92.5023 6.28825 -52.0554 19.0417 -12.4011 33.9892C-8.58087 35.49 -4.73331 36.718 -0.994904 37.8914C74.5919 62.7776 87.0624 66.6525 127.257 89.7377C163.059 110.149 173.264 129.714 212.913 139.81C236.264 145.559 260.6 146.044 284.161 141.229C305.309 137.164 317.725 126.794 329.95 115.879C343.375 103.927 355.573 90.4472 375.548 78.3588C422.728 49.8706 473.783 54.8369 484.971 48.3425C516.793 51.1659 546.961 63.767 571.336 84.4167C589.919 100.025 600.725 118.171 609.157 124.557C659.639 205.901 636.145 258.457 695.768 289.401C722.374 303.208 755.801 303.372 780.687 301.953C785.599 301.68 790.102 301.326 794.004 301.025C845.85 297.096 865.252 277.804 916.553 268.035C959.613 259.849 980.733 271.418 1012.8 276.767C1024.79 278.329 1036.86 279.159 1048.95 279.25C1103.2 281.297 1129.21 263.778 1163.37 242.766C1191.45 225.548 1223.4 204.837 1272.52 185.463C1325.83 164.203 1382.26 151.787 1439.58 148.706" stroke="url(#paint20_linear_148_661)" stroke-opacity="0.1" stroke-miterlimit="10"/>
<path d="M-135.087 -5.76904C-88.3434 6.10105 -46.4023 18.1895 -14.5849 29.2682C-10.71 30.6326 -6.86247 31.6695 -3.15135 32.761C73.4451 55.0277 86.5978 57.1016 125.81 79.1499C162.348 99.7793 171.763 119.781 211.848 130.069C235.327 135.887 259.822 136.288 283.478 131.242C304.872 126.903 317.151 116.261 329.212 104.937C342.31 92.6573 354.344 78.8225 374.646 66.5703C422.891 37.5364 475.611 44.0035 485.843 38.928C518.537 42.9834 549.072 57.4045 572.973 80.0777C591.583 97.4053 603.508 115.688 610.275 124.174C673.037 203.117 632.624 269.099 691.538 302.008C718.171 316.907 752.062 317.016 776.839 315.46C781.805 315.16 786.308 314.751 790.237 314.423C842.711 310.03 861.185 289.21 913.25 278.322C957.101 269.126 977.922 280.751 1010.31 285.717C1022.39 287.508 1034.6 288.156 1046.8 287.654C1101.07 285.799 1127.68 269.262 1161.73 246.914C1189.78 228.495 1221.49 206.774 1270.88 187.127C1324.65 165.69 1381.79 153.93 1439.66 152.39" stroke="url(#paint21_linear_148_661)" stroke-opacity="0.1" stroke-miterlimit="10"/>
<path d="M-136.696 -7.32422C-89.4338 4.19114 -47.7656 15.1062 -16.8214 24.5204C-12.9192 25.721 -9.07167 26.6215 -5.36055 27.5766C72.3001 47.2237 86.0804 47.5238 124.42 68.8627C161.613 89.6013 170.099 110.094 210.703 120.545C234.328 126.44 259.001 126.758 282.77 121.473C304.382 116.834 316.497 105.919 328.395 94.1856C341.22 81.5787 352.954 67.3892 373.692 54.9733C422.974 25.3663 477.194 33.3616 486.69 29.5686C524.184 35.0261 553.654 54.564 574.557 75.9575C593.14 95.0588 604.901 114.788 611.313 123.984C672.028 210.949 629.05 279.932 687.227 314.833C713.888 330.796 748.243 330.851 772.911 329.159C777.932 328.804 782.489 328.395 786.391 328.04C839.574 323.156 857.148 300.753 909.922 288.773C954.537 278.595 975.058 290.301 1007.75 294.886C1019.94 296.539 1032.27 296.987 1044.56 296.223C1098.86 293.303 1126.09 274.966 1160.04 251.226C1188.07 231.633 1219.58 208.903 1269.19 189.065C1307.64 173.702 1363.52 157.029 1439.68 156.319" stroke="url(#paint22_linear_148_661)" stroke-opacity="0.1" stroke-miterlimit="10"/>
<path d="M-138.28 -8.87964C-90.5266 2.36285 -49.1313 11.9681 -19.033 19.7996C-15.1035 20.8093 -11.256 21.5733 -7.54485 22.5284C71.0163 39.3648 85.5879 37.9186 123.054 58.4934C160.52 79.0682 168.461 100.271 209.61 110.886C233.36 116.881 258.197 117.124 282.059 111.595C303.889 106.629 315.896 95.4954 327.629 83.3797C340.155 70.4726 351.806 55.9011 372.763 43.3215C423.109 13.3052 478.967 22.6648 487.535 20.1816C525.929 26.7852 555.427 48.6153 576.165 71.7552C594.694 92.4392 606.182 113.751 612.376 123.602C670.745 218.426 625.447 290.602 682.969 327.44C709.629 344.522 744.421 344.495 769.035 342.666C774.083 342.284 778.667 341.82 782.678 341.438C836.544 335.981 853.217 312.186 906.701 299.033C952.108 287.873 972.355 299.661 1005.35 303.863C1017.67 305.387 1030.11 305.643 1042.48 304.627C1096.81 300.616 1124.62 280.478 1158.48 255.373C1186.48 234.607 1217.81 210.867 1267.63 190.838C1306.14 175.366 1362.54 158.994 1439.85 160.167" stroke="url(#paint23_linear_148_661)" stroke-opacity="0.1" stroke-miterlimit="10"/>
<path d="M-139.835 -10.4351C-91.6174 0.479973 -50.4949 8.82997 -21.2425 15.1061C-17.2858 15.952 -13.4383 16.6069 -9.72715 17.2618C69.7891 31.4787 85.0975 28.3133 121.69 48.1514C160.193 68.9991 166.797 90.4471 208.492 101.253C232.376 107.353 257.391 107.512 281.35 101.717C303.399 96.3958 315.296 85.0442 326.866 72.5738C339.091 59.312 350.552 44.413 371.863 31.6424C423.219 0.943857 481.151 7.95678 488.382 10.7674C525.711 25.2025 557.174 42.612 577.776 67.5528C596.223 89.9014 607.602 112.686 613.468 123.465C669.272 225.93 621.818 301.544 678.713 340.319C705.373 358.493 740.629 358.357 765.133 356.419C770.263 356.01 774.848 355.519 778.777 355.109C833.352 349.27 849.07 323.838 903.291 309.539C949.461 297.369 969.409 309.266 1002.73 313.086C1015.17 314.477 1027.73 314.541 1040.19 313.277C1094.55 308.202 1122.96 286.236 1156.68 259.767C1184.68 237.936 1215.82 213.05 1265.83 192.83C1304.36 177.249 1361.34 161.231 1439.77 164.205" stroke="url(#paint24_linear_148_661)" stroke-opacity="0.1" stroke-miterlimit="10"/>
<path d="M-141.418 -11.9902C-92.7093 -1.26622 -51.8869 5.61025 -23.4532 10.3037C-19.4692 10.9586 -15.6216 11.5044 -11.8832 12.0228C68.5608 23.5382 84.6332 18.7083 120.326 37.755C159.62 58.7665 165.077 80.5965 207.4 91.5115C231.423 97.6898 256.609 97.7649 280.668 91.7298C302.88 86.0267 314.696 74.5114 326.074 61.7135C338.026 48.0697 349.296 32.8705 370.935 19.9635C423.355 -11.2808 482.515 0.534756 489.227 1.3261C530.159 6.21057 558.893 36.5816 579.277 63.3235C593.064 81.9792 604.845 102.037 614.423 123.165C667.634 233.079 618.08 312.323 674.456 353.036C701.089 372.301 736.836 372.137 761.258 370.036C766.415 369.599 771.054 369.054 774.902 368.617C830.132 362.204 844.949 335.271 899.934 319.909C946.841 306.701 966.543 318.79 1000.16 322.173C1012.74 323.43 1025.41 323.293 1037.95 321.764C1092.37 315.624 1121.29 291.748 1154.96 263.996C1182.91 240.829 1213.85 215.097 1264.12 194.713C1302.7 179.023 1360.17 163.305 1439.77 168.108" stroke="url(#paint25_linear_148_661)" stroke-opacity="0.1" stroke-miterlimit="10"/>
<path d="M-143 -13.5457C-93.8822 -3.28552 -53.3055 2.33572 -25.6631 5.55565C65.8052 16.1978 82.5598 8.28441 118.962 27.3857C158.801 48.3153 163.522 70.8003 206.282 81.9609C230.439 88.2429 255.802 88.2429 279.959 81.9609C325.747 69.4086 327.003 33.8802 370.008 8.28441C423.464 -23.5329 484.234 -9.53438 490.074 -8.08814C567.898 11.0132 604.191 96.4506 615.597 122.892C666.161 240.011 614.505 323.101 670.172 365.752C702.481 390.502 748.979 384.853 771.137 382.124C827.049 375.302 840.966 346.814 896.66 330.278C959.421 311.613 973.256 338.464 1035.83 330.278C1135.65 317.098 1151.66 241.866 1262.31 196.569C1300.93 180.769 1358.94 165.379 1439.68 172.01" stroke="url(#paint26_linear_148_661)" stroke-opacity="0.1" stroke-miterlimit="10"/>
<path d="M-141.526 -10.135C-93.2818 0.12512 -53.3872 6.23753 -25.7448 9.62119C63.2948 20.8637 80.677 13.4415 116.86 32.5701C155.964 53.3086 161.176 75.1387 202.871 86.3812C226.523 92.6299 251.351 92.9486 275.156 87.3089C320.345 76.6395 322.091 41.9843 364.441 17.3709C416.752 -13.2458 475.693 -0.502488 482.515 0.616303C546.341 10.9583 581.542 73.8562 598.87 107.42C602.417 114.269 604.982 120.163 607.056 124.42C658.902 235.289 609.948 315.133 664.797 355.409C697.542 379.395 744.422 373.365 767.507 370.772C788.662 368.45 809.169 362.056 827.895 351.944C846.996 342.366 864.87 331.56 894.258 324.383C903.263 322.2 911.286 321 918.49 319.963C962.15 313.659 978.987 329.186 1031.6 319.826C1051.95 316.253 1071.55 309.25 1089.56 299.115C1138.43 271.828 1168.99 222.71 1244.66 186.854C1249.1 184.744 1253.74 182.688 1258.58 180.687C1297.54 164.478 1356.43 148.351 1438.4 154.546" stroke="url(#paint27_linear_148_661)" stroke-opacity="0.1" stroke-miterlimit="10"/>
<path d="M-140.053 -6.72388C-92.7908 3.53625 -53.4692 9.89426 -25.7996 13.6599C60.7569 25.4755 78.6849 18.599 114.759 37.7822C153.153 58.0841 158.829 79.7232 199.351 90.7747C222.517 97.0065 246.831 97.6611 270.299 92.6848C314.805 83.7617 317.179 50.2253 358.847 26.4305C410.039 -2.79446 467.425 6.61974 474.902 9.32121C533.952 30.4691 572.264 78.2224 590.11 109.849C593.739 116.289 596.25 121.937 598.296 125.921C651.344 230.678 605.282 307.083 659.257 345.068C692.275 368.262 739.674 361.877 763.687 359.394C785.008 357.205 805.79 351.342 825.111 342.066C844.513 333.416 862.659 324.056 891.693 318.517C900.726 316.77 908.803 316.115 916.007 315.079C959.53 308.775 975.63 321.027 1027.18 309.348C1047.3 304.712 1066.56 296.94 1084.26 286.317C1131.31 259.03 1163.4 208.193 1240.59 171.137C1245.1 169.008 1249.79 166.88 1254.67 164.806C1293.97 148.188 1353.73 131.324 1436.96 137.054" stroke="url(#paint28_linear_148_661)" stroke-opacity="0.1" stroke-miterlimit="10"/>
<path d="M-138.579 -3.31299C-92.2995 6.91985 -53.5783 13.6599 -25.9359 17.8349C58.1646 30.1416 76.693 23.8927 112.604 43.0759C150.26 63.0504 156.427 84.2801 195.967 95.277C218.636 101.455 242.413 102.388 265.496 98.0058C309.157 90.7746 312.295 58.3569 353.281 35.49C403.353 7.54747 458.911 14.6968 467.343 17.9713C514.232 36.7643 554.094 69.7105 581.378 112.223C585.089 118.253 587.572 123.656 589.564 127.395C643.758 225.821 600.643 299.088 653.663 334.78C687.063 357.211 734.898 350.416 759.839 348.096C781.333 345.999 802.384 340.654 822.274 332.242C842.03 324.52 860.476 316.634 889.074 312.677C898.188 311.422 906.292 311.286 913.496 310.249C956.965 303.918 972.192 312.977 1022.65 298.924C1042.49 293.2 1061.42 284.673 1078.86 273.601C1124.08 246.123 1157.83 193.84 1236.39 155.473C1240.92 153.29 1245.67 151.117 1250.64 148.952C1290.26 131.952 1350.92 114.351 1435.37 119.645" stroke="url(#paint29_linear_148_661)" stroke-opacity="0.1" stroke-miterlimit="10"/>
<path d="M-137.106 0.0708008C-91.8082 10.3309 -53.66 17.4257 -25.9631 21.9009C55.6816 34.6987 74.8375 29.0775 110.475 48.288C147.368 67.9623 154.135 88.7281 192.475 99.6978C214.668 105.907 237.946 107.211 260.694 103.518C303.726 98.0605 307.41 66.6798 347.741 44.7133C396.695 17.835 449.77 28.5318 459.785 26.7035C517.498 38.3553 553.79 86.7362 572.674 114.679C576.466 120.273 578.895 125.403 581.024 128.923C636.417 221.1 596.25 291.038 648.288 324.384C682.124 346.05 730.314 338.873 756.21 336.663C777.894 334.668 799.223 329.842 819.654 322.31C839.792 315.515 858.457 309.13 886.7 306.729C895.869 305.937 904 306.347 911.259 305.31C954.673 298.979 969.027 304.737 1018.55 288.419C1039.54 281.488 1056.76 271.555 1073.89 260.749C1117.34 233.216 1152.59 179.186 1232.65 139.701C1237.2 137.464 1242 135.235 1247.06 133.016C1287.04 115.579 1348.57 97.2419 1434.25 102.099" stroke="url(#paint30_linear_148_661)" stroke-opacity="0.1" stroke-miterlimit="10"/>
<path d="M-135.66 3.48193C-91.4266 13.7148 -53.7697 21.1643 -25.9362 25.8032C53.198 39.0649 72.8451 34.2078 108.483 53.3091C144.612 72.7378 151.788 93.0125 189.172 103.928C210.849 110.134 233.581 111.751 255.918 108.676C298.132 104.637 302.553 74.648 342.202 53.6092C390.01 28.2591 441.147 38.0007 452.28 35.3538C508.274 45.9414 544.54 90.9659 563.996 117.053C567.87 122.237 570.272 127.122 572.455 130.396C629.022 216.27 591.884 282.907 642.884 313.987C677.158 334.89 725.73 327.304 752.526 325.257C779.814 323.183 799.051 317.535 817.007 312.405C837.527 306.538 856.628 298.024 884.271 300.78C892.443 301.661 900.692 301.523 908.83 300.371C952.217 294.04 965.643 296.632 1014.21 277.886C1034.54 270.054 1051.46 259.276 1068.79 247.87C1110.46 220.364 1147.21 164.67 1228.75 123.902C1233.35 121.61 1238.21 119.318 1243.32 117.026C1283.63 99.2068 1346.03 80.1328 1432.97 84.5261" stroke="url(#paint31_linear_148_661)" stroke-opacity="0.1" stroke-miterlimit="10"/>
<path d="M-134.187 6.91992C-90.8267 17.1528 -53.8519 24.957 -26.1276 29.8961C50.6325 43.5398 70.9073 39.3921 106.381 58.548C141.855 77.7039 149.468 97.4601 185.734 108.402C217.333 117.926 243.665 115.879 251.224 114.106C291.528 104.555 297.75 82.8613 336.744 62.7503C383.406 38.6827 432.66 47.5511 444.83 44.1129C499.078 53.6635 535.289 95.2225 555.4 119.508C559.329 124.284 561.703 128.923 563.913 131.979C621.654 211.549 587.626 274.802 637.59 303.727C672.355 323.865 721.227 315.87 748.978 313.96C776.73 312.05 796.186 306.92 814.469 302.581C835.344 297.642 855.1 290.247 881.951 294.968C890.055 296.466 898.345 296.66 906.51 295.541C949.843 289.21 962.368 288.637 1009.96 267.489C1029.66 258.757 1046.2 247.105 1063.55 235.208C1103.47 207.92 1141.76 150.343 1224.74 108.293C1229.38 105.947 1234.29 103.6 1239.47 101.253C1280.13 83.025 1343.41 63.2142 1431.58 67.1436" stroke="url(#paint32_linear_148_661)" stroke-opacity="0.1" stroke-miterlimit="10"/>
<path d="M-132.713 10.249C-90.3354 20.5637 -53.9609 28.75 -26.2094 33.8801C48.0949 47.8513 68.9699 44.4949 104.28 63.6508C138.935 82.4792 147.122 101.853 182.323 112.768C213.049 122.292 238.645 121.118 246.312 119.427C285.825 110.64 292.701 90.993 331.068 71.8098C376.584 48.9974 423.846 57.0472 437.162 52.7085C489.691 61.1949 525.765 99.0974 546.559 121.828C549.628 125.526 552.506 129.378 555.181 133.371C614.041 206.638 583.206 266.479 631.969 293.276C667.252 312.623 716.424 304.191 745.104 302.472C772.691 300.78 792.966 296.114 811.604 292.594C832.861 288.582 853.272 282.497 879.304 288.964C887.363 291.099 895.762 291.636 904.027 290.547C947.332 284.189 958.93 280.505 1005.56 256.901C1024.67 247.269 1040.77 234.798 1058.26 222.301C1096.46 195.013 1136.24 135.799 1220.67 92.4665C1225.35 90.0652 1230.31 87.6639 1235.57 85.2626C1276.5 66.6252 1340.71 46.0776 1430.13 49.5704" stroke="url(#paint33_linear_148_661)" stroke-opacity="0.1" stroke-miterlimit="10"/>
<path d="M-131.24 13.6055C-89.8441 23.8656 -54.07 32.3248 -26.2639 37.8914C45.5572 52.2447 67.0326 49.6524 102.316 68.8082C136.234 87.3365 144.912 106.22 179.021 117.08C209.038 126.603 233.76 126.303 241.646 124.693C280.395 116.753 288.035 99.0702 325.638 80.7875C370.007 59.2576 415.441 66.4615 429.74 61.386C480.523 68.8082 516.406 103.327 537.99 124.147C541.088 127.54 543.994 131.102 546.695 134.817C606.728 201.753 579.086 258.129 626.648 282.852C662.449 301.435 711.895 292.621 741.502 291.038C769.335 289.51 790.074 285.335 809.039 282.634C831.581 279.533 854.449 279.653 876.958 282.988C886.563 284.216 894.64 286.618 901.762 285.717C945.013 279.332 955.683 272.592 1001.36 246.505C1019.75 235.999 1035.55 222.628 1053.21 209.585C1089.75 182.516 1130.95 121.419 1216.93 76.8035C1221.63 74.3749 1226.68 71.8917 1232.02 69.4086C1273.34 50.3073 1338.45 29.0775 1429.01 32.1337" stroke="url(#paint34_linear_148_661)" stroke-opacity="0.1" stroke-miterlimit="10"/>
<path d="M-129.629 18.2989C-89.2159 28.5317 -54.0148 37.4002 -26.2087 43.2125C43.0474 57.8659 65.1231 56.0376 100.079 75.2754C133.288 93.5035 142.429 111.923 175.474 122.756C204.508 132.279 228.576 132.825 236.681 131.324C274.72 124.311 282.933 108.484 319.963 91.1295C363.159 70.8821 406.71 77.2401 422.046 71.3733C471.163 77.7313 506.637 108.648 529.122 127.913C532.248 130.995 535.191 134.257 537.936 137.682C598.924 198.288 574.747 251.171 621.055 273.847C657.429 291.666 707.092 282.47 737.655 281.024C765.679 279.687 786.909 276.003 806.201 274.12C828.195 271.964 848.688 273.793 874.42 278.459C884.162 280.232 892.212 283.098 899.307 282.061C942.503 275.675 952.272 265.879 996.997 237.254C1014.73 225.876 1030.15 211.659 1047.94 198.015C1082.84 171.219 1125.47 108.239 1212.79 62.3138C1217.54 59.8033 1222.61 57.2928 1228.04 54.7278C1269.68 35.2991 1335.58 13.278 1427.49 15.8703" stroke="url(#paint35_linear_148_661)" stroke-opacity="0.1" stroke-miterlimit="10"/>
<path d="M-128.292 30.1146C-88.8618 40.3474 -54.2611 49.4888 -26.4276 55.683C40.509 70.6093 63.185 69.6816 97.9768 88.7829C130.449 106.711 140.082 124.693 172.063 135.472C200.224 144.995 223.527 146.387 231.877 144.995C269.207 138.965 278.021 124.939 314.395 108.512C356.418 89.4105 398.086 95.0863 414.486 88.3735C461.803 93.8311 494.303 125.376 520.417 138.665C523.883 142.376 526.884 145.377 529.286 147.506C591.31 201.753 570.599 251.199 615.596 271.828C652.571 288.828 702.453 279.25 733.943 277.968C762.158 276.822 783.879 273.629 803.499 272.51C825.875 271.282 846.75 274.911 871.855 280.833C881.733 283.152 889.756 286.481 896.823 285.417C939.992 279.032 948.833 266.316 992.575 235.044C1009.68 222.847 1024.72 207.757 1042.65 193.485C1075.94 166.989 1119.95 102.072 1208.72 54.8644C1213.51 52.3358 1218.64 49.7525 1224.14 47.1147C1266.13 27.4131 1332.99 4.65526 1426.04 6.92013" stroke="url(#paint36_linear_148_661)" stroke-opacity="0.1" stroke-miterlimit="10"/>
<path d="M-126.9 40.7566C-88.3697 50.9894 -54.3693 60.4309 -26.5086 66.9526C37.9994 82.1245 61.3849 82.1245 95.8765 101.335C127.612 118.935 137.736 136.481 168.625 147.233C195.913 156.729 218.453 158.857 227.076 157.684C263.723 152.69 273.11 140.438 308.939 124.939C349.87 107.202 389.574 111.923 407.038 104.418C452.608 108.675 484.78 137.355 511.795 148.406C514.626 151.23 517.624 153.882 520.773 156.347C583.753 204.291 566.589 250.025 610.249 268.826C647.851 285.008 697.897 275.048 730.315 273.956C758.748 272.974 780.961 270.272 800.881 270.027C823.638 269.727 844.923 275.211 869.482 282.333C879.469 285.226 887.492 288.992 894.559 287.791C937.646 281.378 945.614 265.634 988.374 231.824C1004.75 218.808 1019.51 202.872 1037.49 187.973C1069.17 161.832 1114.55 94.9224 1204.77 46.4051C1209.57 43.6763 1214.78 41.1659 1220.35 38.4917C1262.67 18.217 1330.32 -5.16843 1424.7 -3.55847" stroke="url(#paint37_linear_148_661)" stroke-opacity="0.1" stroke-miterlimit="10"/>
<path d="M-125.372 51.3984C-87.8515 61.6312 -54.4242 71.3729 -26.5908 78.2766C35.4886 93.6122 59.3108 94.5127 93.7751 113.75C124.774 131.051 135.389 148.16 165.214 158.857C191.683 168.353 213.404 169.144 222.273 170.263C258.156 174.847 268.198 155.801 303.262 141.256C342.966 124.884 380.841 128.677 399.37 120.354C443.221 123.547 475.011 149.252 503.063 158.066C505.922 160.612 508.948 162.964 512.122 165.106C576.03 206.719 562.468 248.769 604.9 265.715C643.103 281.051 693.339 270.763 726.712 269.808C755.364 269.017 778.04 266.834 798.288 267.38C821.428 268.007 843.067 275.402 867.107 283.752C877.231 287.218 885.199 291.393 892.266 290.356C935.326 283.916 942.421 265.224 984.144 228.795C999.998 214.96 1014.3 198.151 1032.47 182.624C1062.49 156.865 1109.31 87.9364 1200.97 38.0001C1205.83 35.3805 1211.08 32.6518 1216.72 29.8139C1259.37 9.12989 1327.91 -15.1015 1423.53 -13.8463" stroke="url(#paint38_linear_148_661)" stroke-opacity="0.1" stroke-miterlimit="10"/>
<path d="M-123.898 62.0681C-87.3603 72.4101 -54.5605 82.3155 -26.6725 89.574C32.9783 105.073 57.3735 106.929 91.6741 126.194C121.936 143.167 133.042 159.73 161.776 170.645C187.399 180.141 208.383 181.56 217.443 183.007C252.426 188.464 263.259 171.328 297.696 157.711C336.226 142.457 372.246 145.568 391.811 136.427C433.916 138.583 465.488 161.259 494.249 167.862C497.135 170.138 500.191 172.191 503.39 174.002C568.171 209.312 558.375 247.678 599.224 262.768C638.164 277.203 688.482 266.589 722.756 265.825C751.626 265.197 774.793 263.532 795.368 264.897C818.89 266.452 840.884 275.812 864.406 285.171C874.639 289.265 882.607 293.849 889.647 292.785C932.652 286.345 938.929 264.733 979.696 225.657C994.923 211.004 1008.84 193.349 1027.12 177.167C1055.72 151.817 1103.75 80.842 1196.85 29.8142C1201.74 27.1037 1207.05 24.3749 1212.76 21.628C1255.77 0.56194 1325.16 -24.4062 1422.03 -23.5876" stroke="url(#paint39_linear_148_661)" stroke-opacity="0.1" stroke-miterlimit="10"/>
<path d="M-122.425 72.7103C-86.9511 82.9159 -54.6698 93.2306 -26.7545 100.871C30.5495 116.48 55.4359 119.372 89.5727 138.61C119.125 155.283 130.695 171.546 158.365 182.27C183.115 191.766 203.362 193.813 212.64 195.586C246.695 202.053 258.347 186.663 292.129 174.002C329.486 160.003 363.623 162.295 384.252 152.335C424.638 153.427 455.746 173.129 485.544 177.495C488.465 179.49 491.551 181.234 494.767 182.707C560.258 211.822 554.363 246.205 593.767 259.63C633.17 273.056 683.816 262.359 719.044 261.677C748.106 261.213 771.764 260.04 792.721 262.223C816.598 264.706 838.946 275.866 861.977 286.509C872.319 291.229 880.287 296.168 887.3 295.131C930.251 288.664 935.736 264.187 975.33 222.41C989.983 206.965 1003.52 188.464 1021.91 171.601C1048.98 146.742 1098.32 73.6654 1192.84 21.2187C1197.75 18.4899 1203.13 15.7612 1208.91 12.7868C1252.19 -8.79765 1322.48 -34.5026 1420.58 -34.0114" stroke="url(#paint40_linear_148_661)" stroke-opacity="0.1" stroke-miterlimit="10"/>
<path d="M-120.951 83.3253C-86.378 93.5309 -54.7516 104.118 -26.809 112.114C27.9846 127.831 53.4986 131.733 87.4717 150.999C116.287 167.371 128.403 183.171 154.927 193.758C178.858 203.254 198.369 205.928 207.838 208.03C240.992 215.37 253.408 201.89 286.59 190.156C322.746 177.386 355 178.914 376.639 168.135C415.278 168.135 446.031 184.862 476.757 186.991C479.736 188.705 482.859 190.157 486.09 191.33C552.562 214.306 550.38 244.65 588.309 256.438C628.668 268.963 679.15 257.857 715.333 257.475C744.586 257.147 768.735 256.492 789.965 259.494C814.224 262.905 836.873 276.167 859.439 287.764C869.891 293.221 877.831 298.433 884.844 297.369C927.768 290.929 932.461 263.56 970.964 219.081C985.017 202.845 998.252 183.607 1016.64 165.952C1042.24 141.584 1092.83 66.407 1188.8 12.6505C1193.77 9.86715 1199.18 6.99287 1205.04 4.02762C1248.7 -17.8024 1319.86 -44.2714 1419.22 -44.3533" stroke="url(#paint41_linear_148_661)" stroke-opacity="0.1" stroke-miterlimit="10"/>
<path d="M-119.478 94.022C-85.8867 104.228 -54.8606 115.061 -26.8908 123.465C25.5015 139.237 51.5885 144.204 85.3707 163.523C113.45 179.541 126.002 194.931 151.516 205.464C168.218 212.014 185.456 217.108 203.035 220.691C235.289 228.877 248.469 217.307 281.023 206.529C315.979 194.986 346.514 195.614 369.135 184.126C406.028 183.116 436.454 196.814 468.107 196.732C471.134 198.157 474.285 199.299 477.522 200.143C544.595 216.953 546.45 243.176 582.852 253.354C623.974 264.842 674.511 254.227 711.595 253.354C741.066 252.672 765.679 253.081 787.264 256.874C811.823 261.213 834.853 276.494 856.956 289.128C867.489 295.131 875.458 300.807 882.443 299.743C925.312 293.276 929.269 263.069 966.653 215.861C980.106 198.861 992.931 178.723 1011.46 160.413C1035.55 136.563 1087.4 59.2576 1184.82 4.19127C1189.81 1.46251 1195.27 -1.56642 1201.19 -4.59534C1245.21 -26.8893 1317.24 -54.0677 1417.83 -54.5862" stroke="url(#paint42_linear_148_661)" stroke-opacity="0.1" stroke-miterlimit="10"/>
<path d="M-118.004 104.692C-85.2592 114.897 -54.9426 125.949 -26.9728 134.708C23.0182 150.48 49.651 156.538 83.2967 175.885C110.584 191.575 123.655 206.556 148.078 217.035C164.355 223.76 181.122 229.233 198.232 233.407C229.64 242.385 243.53 232.752 275.456 222.983C309.211 212.614 337.781 212.587 361.576 200.198C396.75 198.097 426.821 208.821 459.375 206.502C462.457 207.627 465.636 208.467 468.871 209.012C536.708 219.791 542.548 241.757 577.394 250.38C619.308 260.749 669.845 249.998 707.884 249.343C737.573 248.852 762.65 249.752 784.562 254.364C809.558 259.63 832.779 276.931 854.5 290.602C865.061 297.26 873.083 303.291 880.042 302.226C922.883 295.732 926.103 262.687 962.314 212.75C975.221 194.959 987.692 174.029 1006.25 155.01C1028.95 131.706 1082 52.2449 1180.89 -4.15857C1185.91 -7.02377 1191.45 -10.0254 1197.45 -13.1362C1241.82 -35.8122 1314.79 -63.7274 1416.54 -64.7097" stroke="url(#paint43_linear_148_661)" stroke-opacity="0.1" stroke-miterlimit="10"/>
<path d="M-116.558 115.361C-84.9042 125.539 -55.0242 136.836 -27.0544 146.087C20.4535 161.886 47.7411 169.036 81.1958 188.41C107.801 203.8 121.309 218.426 144.667 228.768C160.518 235.544 176.799 241.269 193.403 245.905C223.992 255.646 238.591 248.006 269.808 239.192C302.39 230.051 329.077 229.259 353.936 216.025C387.363 212.887 417.08 220.609 450.589 216.025C453.724 216.86 456.931 217.399 460.167 217.635C528.768 222.437 538.51 239.956 571.855 247.133C614.56 256.356 665.097 245.495 704.091 245.113C733.971 244.786 759.54 246.178 781.779 251.608C807.157 257.802 830.624 277.122 851.936 291.83C862.55 299.17 870.6 305.474 877.559 304.464C920.346 297.969 922.911 262.059 957.921 209.394C970.255 190.838 982.48 169.145 1000.95 149.361C1022.35 126.631 1076.49 45.1227 1176.85 -12.7269C1181.9 -15.6467 1187.49 -18.7029 1193.58 -21.8683C1238.27 -44.9263 1312.06 -73.6055 1415.13 -74.9426" stroke="url(#paint44_linear_148_661)" stroke-opacity="0.1" stroke-miterlimit="10"/>
<path d="M-115.084 126.03C-84.4129 136.236 -55.0514 147.696 -27.1361 157.438C18.1068 173.183 45.8038 181.506 79.0947 200.88C104.991 215.943 118.962 230.105 141.229 240.447C156.661 247.377 172.477 253.417 188.6 258.539C218.371 269.044 233.625 263.368 264.323 255.537C295.704 247.569 320.536 246.041 346.459 232.015C378.167 227.813 407.529 232.533 441.966 225.766C445.169 226.194 448.395 226.421 451.626 226.448C520.936 229.532 534.689 238.318 566.48 244.103C609.976 252.017 660.54 240.665 700.435 241.047C730.451 241.347 756.593 242.794 779.16 249.042C804.919 256.164 828.578 277.531 849.534 293.248C860.204 301.271 868.308 307.929 875.239 306.892C917.999 300.398 919.909 261.677 953.664 206.283C965.452 186.936 977.323 164.478 995.851 143.876C1015.77 121.719 1071.19 37.9184 1172.87 -21.1319C1177.98 -24.1153 1183.61 -27.217 1189.76 -30.437C1234.78 -53.9588 1309.47 -83.3476 1413.76 -85.2031" stroke="url(#paint45_linear_148_661)" stroke-opacity="0.1" stroke-miterlimit="10"/>
<path d="M-113.611 136.672C-83.9219 146.851 -55.1334 158.502 -27.2181 168.708C15.6781 184.371 43.8662 193.867 76.9934 213.296C102.153 228.031 116.588 241.784 137.818 252.072C157.465 261.622 173.292 267.08 183.797 271.173C212.777 282.388 228.686 278.704 258.757 271.91C285.958 265.664 312.728 257.67 338.9 247.978C367.607 237.882 397.569 227.84 433.234 235.453C436.472 235.904 439.761 235.83 442.976 235.235C513.214 228.304 530.76 236.6 561.022 241.047C605.337 247.542 655.874 236.354 696.723 236.954C727.04 237.391 753.564 239.383 776.458 246.423C802.572 254.609 826.449 277.913 847.051 294.64C857.748 303.345 865.934 310.331 872.865 309.266C915.543 302.745 916.853 261.186 949.271 203.063C960.513 182.925 972.111 159.758 990.557 138.364C1009 116.971 1065.79 30.9603 1168.8 -29.6181C1173.93 -32.5925 1179.71 -35.7851 1185.85 -39.0869C1231.23 -62.9909 1306.77 -93.1163 1412.34 -95.4358" stroke="url(#paint46_linear_148_661)" stroke-opacity="0.1" stroke-miterlimit="10"/>
<path d="M-112.138 147.342C-83.4313 157.52 -55.1886 169.172 -27.2733 180.087C13.2488 195.668 41.9554 206.365 74.8916 225.821C99.4505 240.229 114.24 253.572 134.379 263.805C153.18 273.383 168.461 279.359 178.994 283.807C207.21 295.732 223.719 294.013 253.189 288.255C282.141 282.606 301.352 275.402 331.341 263.969C358.356 253.654 387.117 251.662 424.528 245.14C427.967 244.54 431.268 244.595 434.352 244.049C505.464 231.278 526.83 234.826 555.564 237.991C600.67 242.93 651.234 232.07 692.984 232.861C723.519 233.461 750.534 235.972 773.756 243.776C800.252 252.781 824.293 278.213 844.567 295.977C855.291 305.364 863.669 312.677 870.463 311.613C913.087 305.091 913.823 260.667 945.013 199.734C955.737 178.804 967.089 154.982 985.426 132.716C1002.7 111.759 1060.47 23.7017 1164.9 -38.1865C1170.08 -41.2154 1175.81 -44.4626 1182.12 -47.8463C1227.82 -72.1322 1304.26 -102.994 1411.03 -105.778" stroke="url(#paint47_linear_148_661)" stroke-opacity="0.1" stroke-miterlimit="10"/>
<path d="M-110.528 157.984C-82.8041 168.162 -55.0798 180.032 -27.2191 191.302C10.9836 206.774 40.1541 218.59 72.9266 238.182C96.6396 252.262 112.03 265.197 131.104 275.402C149.032 284.953 163.658 291.42 174.328 296.332C201.806 308.966 218.916 309.212 247.786 304.518C275.51 299.988 293.056 292.648 323.918 279.959C349.323 269.426 377.566 264.487 415.932 254.855C419.343 254.009 422.727 253.654 425.865 252.863C497.905 234.28 523.118 238.046 550.242 234.935C596.448 229.86 642.937 227.818 689.409 228.822C720.163 229.559 747.641 232.588 771.272 241.266C798.151 251.198 822.328 278.677 842.22 297.451C852.944 307.52 861.322 315.133 868.198 314.096C910.794 307.547 910.931 260.285 940.838 196.76C951.043 175.066 962.204 150.589 980.378 127.422C996.341 107.093 1055.17 16.7707 1161.05 -46.4001C1166.26 -49.4836 1171.96 -52.7853 1178.43 -56.2236C1224.49 -80.9461 1301.77 -112.545 1409.8 -115.738" stroke="url(#paint48_linear_148_661)" stroke-opacity="0.1" stroke-miterlimit="10"/>
<path d="M-109.191 165.652C-82.449 175.83 -55.2432 187.782 -27.3279 199.625C8.58262 214.933 38.1624 228.113 70.9076 247.624C93.9111 261.268 109.765 273.929 127.775 284.053C144.83 293.631 158.828 300.589 169.58 305.883C196.404 319.199 214.031 321.41 242.301 317.78C268.825 314.369 284.788 307.029 316.442 292.73C340.291 281.952 368.125 274.175 407.31 261.35C410.721 260.231 414.104 259.494 417.324 258.43C490.346 234.089 519.298 231.797 544.867 228.686C591.607 222.935 638.698 220.537 685.78 221.51C716.725 222.41 744.694 225.958 768.544 235.454C795.832 246.369 820.118 275.812 839.819 295.486C850.516 306.238 858.921 314.206 865.879 313.141C908.42 306.565 908.038 256.465 936.581 190.184C946.268 167.671 957.32 142.594 975.248 118.526C989.956 98.7975 1049.83 6.23798 1157.15 -58.2426C1162.39 -61.3806 1168.25 -64.737 1174.69 -68.2298C1221.08 -93.3617 1299.26 -125.697 1408.52 -129.354" stroke="url(#paint49_linear_148_661)" stroke-opacity="0.1" stroke-miterlimit="10"/>
<path d="M-107.799 169.772C-82.0398 179.951 -55.2979 191.902 -27.6009 204.373C6.01751 219.518 36.1431 233.898 68.5063 253.491C90.8003 266.889 107.091 279.086 124.037 289.128C140.246 298.733 153.616 306.128 164.477 311.968C190.646 325.966 208.792 330.114 236.434 327.576C261.757 325.257 276.247 318.108 308.583 302.144C330.904 291.229 358.41 280.533 398.278 264.487C401.716 263.123 405.127 262.004 408.374 260.667C482.487 230.514 514.96 222.083 539.109 219.054C586.126 213.187 637.181 209.421 681.742 210.867C712.904 211.877 741.338 215.97 765.542 226.285C793.185 238.073 817.58 269.59 837.036 290.438C847.733 301.899 856.328 310.14 863.177 309.075C905.692 302.526 904.764 249.534 931.97 180.551C941.138 157.247 952.135 131.597 969.736 106.574C983.216 87.4729 1044.09 -7.32414 1152.86 -73.1145C1158.16 -76.2799 1164.05 -79.7181 1170.57 -83.2928C1217.32 -108.807 1296.34 -141.879 1406.86 -146.054" stroke="url(#paint50_linear_148_661)" stroke-opacity="0.1" stroke-miterlimit="10"/>
<path d="M-106.271 173.702C-81.4665 183.853 -55.1612 195.805 -27.6007 208.957C4.61949 224.055 36.0253 240.833 66.4872 259.221C88.0717 272.319 104.69 284.135 120.708 294.067C136.016 303.755 148.787 311.559 159.756 317.862C185.298 332.57 203.935 338.628 230.95 337.209C255.099 335.954 268.198 329.159 301.106 311.395C322.009 300.125 349.215 286.7 389.655 267.462C393.093 265.825 396.531 264.324 399.833 262.741C475.011 226.776 510.758 210.758 533.734 209.258C581.733 206.201 632.597 198.343 678.113 200.062C709.494 201.181 738.391 205.874 762.923 216.98C790.947 229.696 815.424 263.369 834.635 285.199C845.277 297.342 854.009 305.91 860.858 304.873C903.318 298.27 901.79 242.412 927.713 170.728C936.867 143.875 949.256 118.236 964.606 94.3769C976.885 75.8487 1038.75 -21.1587 1148.93 -88.2589C1154.26 -91.4788 1160.2 -94.9716 1166.81 -98.6008C1213.88 -124.524 1293.8 -158.333 1405.55 -162.89" stroke="url(#paint51_linear_148_661)" stroke-opacity="0.1" stroke-miterlimit="10"/>
<path d="M-104.797 177.467C-46.3405 202.392 10.2062 231.577 64.3861 264.788C151.543 318.244 175.365 347.114 225.383 346.65C261.812 346.296 270.408 330.796 380.923 270.245C464.041 224.702 505.6 202.026 528.276 199.297C609.757 189.774 698.824 177.986 760.221 207.484C804.482 228.741 839.355 303.208 858.457 300.261C915.079 291.475 892.73 189.747 959.421 81.9608C970.527 64.0055 1033.34 -35.1848 1144.98 -103.595C1188.31 -130.146 1275.3 -174.297 1404.21 -180" stroke="url(#paint52_linear_148_661)" stroke-opacity="0.1" stroke-miterlimit="10"/>
</g>
<defs>
<linearGradient id="paint0_linear_148_661" x1="668.807" y1="-128.153" x2="668.807" y2="183.874" gradientUnits="userSpaceOnUse">
<stop stop-color="#554FD8"/>
<stop offset="1" stop-color="#554FD8" stop-opacity="0"/>
</linearGradient>
<linearGradient id="paint1_linear_148_661" x1="668.03" y1="-117.948" x2="668.03" y2="185.81" gradientUnits="userSpaceOnUse">
<stop stop-color="#554FD8"/>
<stop offset="1" stop-color="#554FD8" stop-opacity="0"/>
</linearGradient>
<linearGradient id="paint2_linear_148_661" x1="667.307" y1="-107.688" x2="667.307" y2="187.743" gradientUnits="userSpaceOnUse">
<stop stop-color="#554FD8"/>
<stop offset="1" stop-color="#554FD8" stop-opacity="0"/>
</linearGradient>
<linearGradient id="paint3_linear_148_661" x1="666.447" y1="-97.5916" x2="666.447" y2="189.717" gradientUnits="userSpaceOnUse">
<stop stop-color="#554FD8"/>
<stop offset="1" stop-color="#554FD8" stop-opacity="0"/>
</linearGradient>
<linearGradient id="paint4_linear_148_661" x1="665.655" y1="-87.4133" x2="665.655" y2="191.689" gradientUnits="userSpaceOnUse">
<stop stop-color="#554FD8"/>
<stop offset="1" stop-color="#554FD8" stop-opacity="0"/>
</linearGradient>
<linearGradient id="paint5_linear_148_661" x1="664.824" y1="-77.2351" x2="664.824" y2="193.641" gradientUnits="userSpaceOnUse">
<stop stop-color="#554FD8"/>
<stop offset="1" stop-color="#554FD8" stop-opacity="0"/>
</linearGradient>
<linearGradient id="paint6_linear_148_661" x1="663.977" y1="-67.0837" x2="663.977" y2="195.613" gradientUnits="userSpaceOnUse">
<stop stop-color="#554FD8"/>
<stop offset="1" stop-color="#554FD8" stop-opacity="0"/>
</linearGradient>
<linearGradient id="paint7_linear_148_661" x1="663.268" y1="-56.9055" x2="663.268" y2="197.608" gradientUnits="userSpaceOnUse">
<stop stop-color="#554FD8"/>
<stop offset="1" stop-color="#554FD8" stop-opacity="0"/>
</linearGradient>
<linearGradient id="paint8_linear_148_661" x1="662.517" y1="-46.7549" x2="662.517" y2="199.513" gradientUnits="userSpaceOnUse">
<stop stop-color="#554FD8"/>
<stop offset="1" stop-color="#554FD8" stop-opacity="0"/>
</linearGradient>
<linearGradient id="paint9_linear_148_661" x1="661.74" y1="-36.6038" x2="661.74" y2="201.539" gradientUnits="userSpaceOnUse">
<stop stop-color="#554FD8"/>
<stop offset="1" stop-color="#554FD8" stop-opacity="0"/>
</linearGradient>
<linearGradient id="paint10_linear_148_661" x1="660.867" y1="-26.48" x2="660.867" y2="203.503" gradientUnits="userSpaceOnUse">
<stop stop-color="#554FD8"/>
<stop offset="1" stop-color="#554FD8" stop-opacity="0"/>
</linearGradient>
<linearGradient id="paint11_linear_148_661" x1="660.185" y1="-16.3293" x2="660.185" y2="205.528" gradientUnits="userSpaceOnUse">
<stop stop-color="#554FD8"/>
<stop offset="1" stop-color="#554FD8" stop-opacity="0"/>
</linearGradient>
<linearGradient id="paint12_linear_148_661" x1="659.353" y1="-6.20557" x2="659.353" y2="207.507" gradientUnits="userSpaceOnUse">
<stop stop-color="#554FD8"/>
<stop offset="1" stop-color="#554FD8" stop-opacity="0"/>
</linearGradient>
<linearGradient id="paint13_linear_148_661" x1="658.575" y1="-1.9209" x2="658.575" y2="215.224" gradientUnits="userSpaceOnUse">
<stop stop-color="#554FD8"/>
<stop offset="1" stop-color="#554FD8" stop-opacity="0"/>
</linearGradient>
<linearGradient id="paint14_linear_148_661" x1="657.688" y1="-0.202148" x2="657.688" y2="225.417" gradientUnits="userSpaceOnUse">
<stop stop-color="#554FD8"/>
<stop offset="1" stop-color="#554FD8" stop-opacity="0"/>
</linearGradient>
<linearGradient id="paint15_linear_148_661" x1="657.005" y1="1.4624" x2="657.005" y2="236.603" gradientUnits="userSpaceOnUse">
<stop stop-color="#554FD8"/>
<stop offset="1" stop-color="#554FD8" stop-opacity="0"/>
</linearGradient>
<linearGradient id="paint16_linear_148_661" x1="656.214" y1="2.00806" x2="656.214" y2="247.802" gradientUnits="userSpaceOnUse">
<stop stop-color="#554FD8"/>
<stop offset="1" stop-color="#554FD8" stop-opacity="0"/>
</linearGradient>
<linearGradient id="paint17_linear_148_661" x1="655.382" y1="0.452881" x2="655.382" y2="261.502" gradientUnits="userSpaceOnUse">
<stop stop-color="#554FD8"/>
<stop offset="1" stop-color="#554FD8" stop-opacity="0"/>
</linearGradient>
<linearGradient id="paint18_linear_148_661" x1="654.673" y1="-1.10254" x2="654.673" y2="275.171" gradientUnits="userSpaceOnUse">
<stop stop-color="#554FD8"/>
<stop offset="1" stop-color="#554FD8" stop-opacity="0"/>
</linearGradient>
<linearGradient id="paint19_linear_148_661" x1="653.84" y1="-2.65796" x2="653.84" y2="288.99" gradientUnits="userSpaceOnUse">
<stop stop-color="#554FD8"/>
<stop offset="1" stop-color="#554FD8" stop-opacity="0"/>
</linearGradient>
<linearGradient id="paint20_linear_148_661" x1="653.008" y1="-4.21338" x2="653.008" y2="302.535" gradientUnits="userSpaceOnUse">
<stop stop-color="#554FD8"/>
<stop offset="1" stop-color="#554FD8" stop-opacity="0"/>
</linearGradient>
<linearGradient id="paint21_linear_148_661" x1="652.285" y1="-5.76904" x2="652.285" y2="316.111" gradientUnits="userSpaceOnUse">
<stop stop-color="#554FD8"/>
<stop offset="1" stop-color="#554FD8" stop-opacity="0"/>
</linearGradient>
<linearGradient id="paint22_linear_148_661" x1="651.494" y1="-7.32422" x2="651.494" y2="329.88" gradientUnits="userSpaceOnUse">
<stop stop-color="#554FD8"/>
<stop offset="1" stop-color="#554FD8" stop-opacity="0"/>
</linearGradient>
<linearGradient id="paint23_linear_148_661" x1="650.784" y1="-8.87964" x2="650.784" y2="343.461" gradientUnits="userSpaceOnUse">
<stop stop-color="#554FD8"/>
<stop offset="1" stop-color="#554FD8" stop-opacity="0"/>
</linearGradient>
<linearGradient id="paint24_linear_148_661" x1="649.966" y1="-10.4351" x2="649.966" y2="357.277" gradientUnits="userSpaceOnUse">
<stop stop-color="#554FD8"/>
<stop offset="1" stop-color="#554FD8" stop-opacity="0"/>
</linearGradient>
<linearGradient id="paint25_linear_148_661" x1="649.174" y1="-11.9902" x2="649.174" y2="370.975" gradientUnits="userSpaceOnUse">
<stop stop-color="#554FD8"/>
<stop offset="1" stop-color="#554FD8" stop-opacity="0"/>
</linearGradient>
<linearGradient id="paint26_linear_148_661" x1="648.342" y1="-13.5457" x2="648.342" y2="384.673" gradientUnits="userSpaceOnUse">
<stop stop-color="#554FD8"/>
<stop offset="1" stop-color="#554FD8" stop-opacity="0"/>
</linearGradient>
<linearGradient id="paint27_linear_148_661" x1="648.438" y1="-10.135" x2="648.438" y2="373.392" gradientUnits="userSpaceOnUse">
<stop stop-color="#554FD8"/>
<stop offset="1" stop-color="#554FD8" stop-opacity="0"/>
</linearGradient>
<linearGradient id="paint28_linear_148_661" x1="648.451" y1="-6.72388" x2="648.451" y2="362.108" gradientUnits="userSpaceOnUse">
<stop stop-color="#554FD8"/>
<stop offset="1" stop-color="#554FD8" stop-opacity="0"/>
</linearGradient>
<linearGradient id="paint29_linear_148_661" x1="648.397" y1="-3.31299" x2="648.397" y2="350.892" gradientUnits="userSpaceOnUse">
<stop stop-color="#554FD8"/>
<stop offset="1" stop-color="#554FD8" stop-opacity="0"/>
</linearGradient>
<linearGradient id="paint30_linear_148_661" x1="648.574" y1="0.0708008" x2="648.574" y2="339.585" gradientUnits="userSpaceOnUse">
<stop stop-color="#554FD8"/>
<stop offset="1" stop-color="#554FD8" stop-opacity="0"/>
</linearGradient>
<linearGradient id="paint31_linear_148_661" x1="648.656" y1="3.48193" x2="648.656" y2="328.286" gradientUnits="userSpaceOnUse">
<stop stop-color="#554FD8"/>
<stop offset="1" stop-color="#554FD8" stop-opacity="0"/>
</linearGradient>
<linearGradient id="paint32_linear_148_661" x1="648.696" y1="6.91992" x2="648.696" y2="317.133" gradientUnits="userSpaceOnUse">
<stop stop-color="#554FD8"/>
<stop offset="1" stop-color="#554FD8" stop-opacity="0"/>
</linearGradient>
<linearGradient id="paint33_linear_148_661" x1="648.71" y1="10.249" x2="648.71" y2="305.776" gradientUnits="userSpaceOnUse">
<stop stop-color="#554FD8"/>
<stop offset="1" stop-color="#554FD8" stop-opacity="0"/>
</linearGradient>
<linearGradient id="paint34_linear_148_661" x1="648.887" y1="13.6055" x2="648.887" y2="294.509" gradientUnits="userSpaceOnUse">
<stop stop-color="#554FD8"/>
<stop offset="1" stop-color="#554FD8" stop-opacity="0"/>
</linearGradient>
<linearGradient id="paint35_linear_148_661" x1="648.929" y1="15.6614" x2="648.929" y2="284.679" gradientUnits="userSpaceOnUse">
<stop stop-color="#554FD8"/>
<stop offset="1" stop-color="#554FD8" stop-opacity="0"/>
</linearGradient>
<linearGradient id="paint36_linear_148_661" x1="648.874" y1="6.76367" x2="648.874" y2="285.621" gradientUnits="userSpaceOnUse">
<stop stop-color="#554FD8"/>
<stop offset="1" stop-color="#554FD8" stop-opacity="0"/>
</linearGradient>
<linearGradient id="paint37_linear_148_661" x1="648.902" y1="-3.63721" x2="648.902" y2="288.02" gradientUnits="userSpaceOnUse">
<stop stop-color="#554FD8"/>
<stop offset="1" stop-color="#554FD8" stop-opacity="0"/>
</linearGradient>
<linearGradient id="paint38_linear_148_661" x1="649.079" y1="-13.8931" x2="649.079" y2="290.517" gradientUnits="userSpaceOnUse">
<stop stop-color="#554FD8"/>
<stop offset="1" stop-color="#554FD8" stop-opacity="0"/>
</linearGradient>
<linearGradient id="paint39_linear_148_661" x1="649.065" y1="-23.6072" x2="649.065" y2="292.941" gradientUnits="userSpaceOnUse">
<stop stop-color="#554FD8"/>
<stop offset="1" stop-color="#554FD8" stop-opacity="0"/>
</linearGradient>
<linearGradient id="paint40_linear_148_661" x1="649.079" y1="-34.0183" x2="649.079" y2="295.271" gradientUnits="userSpaceOnUse">
<stop stop-color="#554FD8"/>
<stop offset="1" stop-color="#554FD8" stop-opacity="0"/>
</linearGradient>
<linearGradient id="paint41_linear_148_661" x1="649.133" y1="-44.3533" x2="649.133" y2="297.508" gradientUnits="userSpaceOnUse">
<stop stop-color="#554FD8"/>
<stop offset="1" stop-color="#554FD8" stop-opacity="0"/>
</linearGradient>
<linearGradient id="paint42_linear_148_661" x1="649.175" y1="-54.5862" x2="649.175" y2="299.872" gradientUnits="userSpaceOnUse">
<stop stop-color="#554FD8"/>
<stop offset="1" stop-color="#554FD8" stop-opacity="0"/>
</linearGradient>
<linearGradient id="paint43_linear_148_661" x1="649.27" y1="-64.7097" x2="649.27" y2="302.349" gradientUnits="userSpaceOnUse">
<stop stop-color="#554FD8"/>
<stop offset="1" stop-color="#554FD8" stop-opacity="0"/>
</linearGradient>
<linearGradient id="paint44_linear_148_661" x1="649.284" y1="-74.9426" x2="649.284" y2="304.571" gradientUnits="userSpaceOnUse">
<stop stop-color="#554FD8"/>
<stop offset="1" stop-color="#554FD8" stop-opacity="0"/>
</linearGradient>
<linearGradient id="paint45_linear_148_661" x1="649.339" y1="-85.2031" x2="649.339" y2="306.999" gradientUnits="userSpaceOnUse">
<stop stop-color="#554FD8"/>
<stop offset="1" stop-color="#554FD8" stop-opacity="0"/>
</linearGradient>
<linearGradient id="paint46_linear_148_661" x1="649.366" y1="-95.4358" x2="649.366" y2="309.374" gradientUnits="userSpaceOnUse">
<stop stop-color="#554FD8"/>
<stop offset="1" stop-color="#554FD8" stop-opacity="0"/>
</linearGradient>
<linearGradient id="paint47_linear_148_661" x1="649.447" y1="-105.778" x2="649.447" y2="311.716" gradientUnits="userSpaceOnUse">
<stop stop-color="#554FD8"/>
<stop offset="1" stop-color="#554FD8" stop-opacity="0"/>
</linearGradient>
<linearGradient id="paint48_linear_148_661" x1="649.638" y1="-115.738" x2="649.638" y2="314.191" gradientUnits="userSpaceOnUse">
<stop stop-color="#554FD8"/>
<stop offset="1" stop-color="#554FD8" stop-opacity="0"/>
</linearGradient>
<linearGradient id="paint49_linear_148_661" x1="649.665" y1="-129.354" x2="649.665" y2="319.34" gradientUnits="userSpaceOnUse">
<stop stop-color="#554FD8"/>
<stop offset="1" stop-color="#554FD8" stop-opacity="0"/>
</linearGradient>
<linearGradient id="paint50_linear_148_661" x1="649.529" y1="-146.054" x2="649.529" y2="328.279" gradientUnits="userSpaceOnUse">
<stop stop-color="#554FD8"/>
<stop offset="1" stop-color="#554FD8" stop-opacity="0"/>
</linearGradient>
<linearGradient id="paint51_linear_148_661" x1="649.638" y1="-162.89" x2="649.638" y2="337.41" gradientUnits="userSpaceOnUse">
<stop stop-color="#554FD8"/>
<stop offset="1" stop-color="#554FD8" stop-opacity="0"/>
</linearGradient>
<linearGradient id="paint52_linear_148_661" x1="649.706" y1="-180" x2="649.706" y2="346.656" gradientUnits="userSpaceOnUse">
<stop stop-color="#554FD8"/>
<stop offset="1" stop-color="#554FD8" stop-opacity="0"/>
</linearGradient>
</defs>
</svg>
