<svg width="20" height="20" viewBox="0 0 20 20" fill="none" xmlns="http://www.w3.org/2000/svg">
<path d="M1 11C0.447716 11 0 10.5523 0 10C0 9.44772 0.447716 9 1 9V11ZM19 10L19.7136 9.29941C20.0955 9.6884 20.0955 10.3116 19.7136 10.7006L19 10ZM13.3773 5.70059C12.9904 5.3065 12.9962 4.67336 13.3903 4.28644C13.7844 3.89951 14.4175 3.90532 14.8045 4.29941L13.3773 5.70059ZM14.8045 15.7006C14.4175 16.0947 13.7844 16.1005 13.3903 15.7136C12.9962 15.3266 12.9904 14.6935 13.3773 14.2994L14.8045 15.7006ZM1 9H19V11H1V9ZM18.2864 10.7006L13.3773 5.70059L14.8045 4.29941L19.7136 9.29941L18.2864 10.7006ZM19.7136 10.7006L14.8045 15.7006L13.3773 14.2994L18.2864 9.29941L19.7136 10.7006Z" fill="white"/>
</svg>
