<svg width="50" height="50" viewBox="0 0 50 50" fill="none" xmlns="http://www.w3.org/2000/svg">
<g clip-path="url(#clip0_187_3208)">
<path d="M0 12.6953C0 5.68389 5.68389 0 12.6953 0H37.3047C44.3161 0 50 5.68389 50 12.6953V37.3047C50 44.3161 44.3161 50 37.3047 50H12.6953C5.68389 50 0 44.3161 0 37.3047V12.6953Z" fill="white"/>
<path fill-rule="evenodd" clip-rule="evenodd" d="M23.9192 9.18635C24.5534 8.65663 25.4759 8.65663 26.1101 9.18635C30.4149 12.7815 35.3237 12.7542 37.2352 12.7435C37.3303 12.743 37.4179 12.7425 37.4977 12.7425C37.9554 12.7425 38.394 12.9261 38.7152 13.2522C39.0364 13.5783 39.2134 14.0196 39.2065 14.4772C39.1159 20.4817 38.8752 24.7728 38.4019 27.9211C37.9288 31.0673 37.2015 33.2388 36.0203 34.8804C34.8302 36.5344 33.3014 37.4711 31.6925 38.3602C31.413 38.5147 31.1284 38.6691 30.8373 38.8269C29.427 39.592 27.8657 40.4389 26.0108 41.7695C25.4154 42.1966 24.6139 42.1966 24.0185 41.7695C22.1654 40.4402 20.6062 39.5937 19.198 38.8292C18.9056 38.6704 18.6196 38.5152 18.3389 38.3599C16.7312 37.4705 15.2044 36.5335 14.0166 34.8789C12.838 33.2372 12.1131 31.0658 11.6419 27.9203C11.1702 24.7723 10.9306 20.4815 10.84 14.4772C10.8331 14.0196 11.0101 13.5783 11.3313 13.2522C11.6525 12.9261 12.0911 12.7425 12.5488 12.7425C12.6277 12.7425 12.7145 12.743 12.8087 12.7435C14.7047 12.7542 19.6141 12.7818 23.9192 9.18635ZM14.2888 16.1466C14.3969 21.2029 14.6292 24.7915 15.0221 27.4138C15.4585 30.3266 16.0713 31.8802 16.7931 32.8856C17.5058 33.8783 18.4422 34.5109 19.9935 35.3691C20.2455 35.5085 20.5117 35.6528 20.7915 35.8046C21.9708 36.4441 23.3919 37.2147 25.0147 38.3016C26.6397 37.2133 28.063 36.4421 29.2444 35.802C29.5229 35.6511 29.788 35.5075 30.0392 35.3687C31.5925 34.5103 32.5312 33.8774 33.2458 32.8841C33.9694 31.8786 34.584 30.3251 35.0219 27.4129C35.4161 24.7911 35.6494 21.2028 35.7577 16.147C33.2869 16.0561 29.0363 15.5231 25.0147 12.6559C20.9981 15.5196 16.7537 16.0547 14.2888 16.1466Z" fill="#3375BB"/>
</g>
<defs>
<clipPath id="clip0_187_3208">
<rect width="50" height="50" fill="white"/>
</clipPath>
</defs>
</svg>
